<svg xmlns="http://www.w3.org/2000/svg" viewBox="0 0 500 500"><g id="freepik--Plants--inject-2"><path d="M208.77,436.31c-4.46,2.39-9.4,5.15-14.6,4.05-4.81-1-9.9-3.53-11.73-8.4-.52-1.39-.62-2.36,1.08-2.49,2.59-.21,5.43,1.36,7.76,2.3a51.36,51.36,0,0,0,9.23,2.86c2.23.45,4.49.66,6.73,1.05l.84.15.32.06a.84.84,0,0,0,.14-.06.23.23,0,0,1,.23,0,.13.13,0,0,1,.07.06A.26.26,0,0,1,208.77,436.31Z" style="fill:#455a64"></path><path d="M208.84,435.9c-4,1.9-8.23,4.2-12.76,3.06a20.52,20.52,0,0,1-5.92-2.67c-.83-.53-3.32-2.08-3.18-3.26.24-2.12,8.23,2.11,9.2,2.41a21.71,21.71,0,0,0,11.06.24l.84.15a23.93,23.93,0,0,1-7.86.72c-3.67-.29-6.47-2-9.84-3.25-.72-.28-3-1.26-3,.06,0,.88,2.4,2.41,2.92,2.74a20.46,20.46,0,0,0,5.61,2.55c4.55,1.21,8.79-1,12.89-2.81A.13.13,0,0,1,208.84,435.9Z" style="fill:#fff"></path><path d="M212.63,437.84l.15.58v0a.17.17,0,0,1,0,.14.21.21,0,0,1-.28,0,.17.17,0,0,1-.06-.11s0-.05,0-.08l0-.18h0l0,0c-2.29-2.61-4.14-5.58-6.46-8.16s-4.62-4.79-6.64-7.43c-1.28-1.66-7.12-10.29-2.47-11.15,2.06-.37,4.59,1.63,6,2.86a21.15,21.15,0,0,1,4.78,5.91C210.65,425.71,211.11,431.87,212.63,437.84Z" style="fill:#455a64"></path><path d="M212.66,438l0-.11c-.11-.23-.23-.46-.35-.68a104.13,104.13,0,0,0-4-11.49,24.45,24.45,0,0,0-3.75-6c-.53-.62-3.09-3.59-4.21-2.94-.72.42-.12,2,.06,2.47.75,2.19,2.46,4,3.84,5.77a93.58,93.58,0,0,1,7.59,11.63c.1.27.19.56.29.84l.22.67v0a2.34,2.34,0,0,1,.09.24l.06.18h0a.23.23,0,0,0,.29,0l-.18-.54c.07.13.13.26.21.39h0C212.74,438.26,212.7,438.1,212.66,438Zm-5.44-9.16c-1.23-1.81-2.54-3.55-3.89-5.26a22.08,22.08,0,0,1-2.14-3c-.45-.82-1.87-4,.69-2.86,1.86.83,3.61,3.68,4.6,5.34a34.07,34.07,0,0,1,2.72,5.8c.85,2.27,1.55,4.6,2.29,6.91C210.18,433.32,208.75,431,207.22,428.79Z" style="fill:#fff"></path><path d="M221.21,449.09h0a1.59,1.59,0,0,1-.16.11c-4.25,1.83-9.59,4.94-14.39,3.9-3.55-.77-8-3.55-8.9-7.34-1-4.29,6.47-2.24,8.39-1.8a140.52,140.52,0,0,1,15,4.88l.09.05h0C221.36,449,221.29,449,221.21,449.09Z" style="fill:#455a64"></path><path d="M221.3,448.9l-.94-.1q-5.37-.56-10.66-1.6c-.89-.18-7.61-2-7.58-.2,0,1.11,2.46,2.18,3.26,2.55a14.1,14.1,0,0,0,4.53,1.26c3.62.37,7.16-.91,10.7-1.63l.49-.1h.11c.06,0,.11-.11.11-.15S221.32,448.91,221.3,448.9Zm-9.38,1.68a14.6,14.6,0,0,1-4.77-.66c-1-.32-4.7-1.59-4.55-2.93.08-.71.51-.57,1.33-.57a10.71,10.71,0,0,1,1.13.07c.92.12,1.82.34,2.72.53,1.59.35,3.18.67,4.78.94,2.63.46,5.26.8,7.91,1.07C217.6,449.49,214.82,450.48,211.92,450.58Z" style="fill:#fff"></path><path d="M224.58,436.81a27.38,27.38,0,0,1-1,15.92.35.35,0,0,1-.06.09.2.2,0,0,1-.25,0,.19.19,0,0,1-.1-.24l.11-.32c-2.09-6-4.1-12-6.3-17.9-.52-1.4-3.66-10.4-.37-10.31,2,.07,3.85,3.49,4.76,5A27.71,27.71,0,0,1,224.58,436.81Z" style="fill:#455a64"></path><path d="M223.78,442a30.43,30.43,0,0,0-1.53-6.17c-.67-1.84-1.53-4.41-2.9-5.86-.37-.41-.86-.77-1.22-.18-.7,1.13.86,5.32,1.23,6.51,1.55,4.89,2.63,9.8,3.72,14.79.1.42.19.84.29,1.27l-.09.46a.19.19,0,0,0,.25,0s0-.08,0-.13.08-.41.11-.62h0A32.15,32.15,0,0,0,223.78,442Zm-.32,9.74c0,.1,0,.2-.05.3,0-.18,0-.35-.08-.53a92,92,0,0,0-2.56-11.6c-.58-1.93-1.27-3.82-1.78-5.77-.21-.82-.89-3.13-.44-3.78s.84.19,1.14.64.52,1,.69,1.27A32,32,0,0,1,223.46,451.76Z" style="fill:#fff"></path><path d="M230,464.11h-1l-.69-1.31c-1.55-2.9-3.12-5.79-4.75-8.65-.93-1.63-1.87-3.24-2.86-4.8a1.4,1.4,0,0,1-.09-.17c-.09-.12-.17-.25-.25-.38l-.28-.41A39.65,39.65,0,0,0,211.9,439c-1.09-.88-2.22-1.72-3.37-2.53-.11-.08-.23-.15-.33-.23h0l-.09-.05h0a2.35,2.35,0,0,0-.32-.23,0,0,0,0,0,0,0l-.26-.18c-3.59-2.43-7.37-4.58-11.06-6.8L193.3,427h0a.86.86,0,0,1-.19-.11l-.24-.14c-4.65-2.84-9.27-5.74-14-8.45-.17-.1,0-.35.18-.25,3.16,1.78,6.36,3.49,9.55,5.22l1.28.69,2.52,1.37c1.68.93,3.34,1.85,5,2.81a133.54,133.54,0,0,1,13.72,8.6h0c.32.24.63.48,1,.74s.39.31.58.47l.67.55a42.48,42.48,0,0,1,9.23,11.69,0,0,0,0,1,0,0c.18.29.35.59.51.89l.25.42.13.23a2.09,2.09,0,0,0,.16.29h0l.12.22c.15.26.29.53.43.79,1.58,2.89,3.1,5.8,4.62,8.71C229.19,462.56,229.61,463.33,230,464.11Z" style="fill:#455a64"></path><path d="M179.2,423.37c-3.78-1.94-9.79-6.81-8.06-11.73a4,4,0,0,1,4.57-2.69c2.4.41,4.39,2.43,5.94,4.15,4.17,4.59,7.87,9.54,12.37,13.83a6.3,6.3,0,0,1,.48.46c.1.09-.06.22-.15.13l-.44-.41C189,426.26,183.68,425.66,179.2,423.37Z" style="fill:#455a64"></path><path d="M194.1,427s0-.05,0-.07l-.1-.06a41.77,41.77,0,0,1-4.07-2.91,85,85,0,0,1-7.57-7.14c-.93-1-5.33-5.78-6.23-2.55-.38,1.36.56,3,1.26,4.05a15.54,15.54,0,0,0,4.34,4.4c3.39,2.36,7.4,3.44,11.42,4.17l.55.1.15.1.1.07s0,0,.07,0a.14.14,0,0,0,.14-.16Zm-1.24-.25a33.13,33.13,0,0,1-9.55-3.27,17.68,17.68,0,0,1-4.18-3.22,14.38,14.38,0,0,1-1.46-1.84,10,10,0,0,1-.87-1.53c-.53-1.17-.67-2.67-.05-3.12.77-.57,1.29-.22,2.32.48a9.18,9.18,0,0,1,1,.77,31,31,0,0,1,2.25,2.19c1.21,1.25,2.41,2.49,3.67,3.69q1.27,1.23,2.61,2.37a43,43,0,0,0,4.88,3.61Z" style="fill:#fff"></path><path d="M275.32,423.07c-2,2.72-4.25,5.31-6.49,7.86-1.27,1.45-2.56,2.89-3.83,4.34-1.4,1.6-3,3.14-3.54,5.25h0a1.05,1.05,0,0,1-.13.26l0,0a.26.26,0,0,1-.35-.28,1,1,0,0,0,0-.14.13.13,0,0,0,0-.06,8.2,8.2,0,0,1,.24-1.88,44,44,0,0,1,1-5.07,42.42,42.42,0,0,1,3.73-9.86,35.52,35.52,0,0,1,5.5-7.66c1.74-1.83,4.29-4.58,6.81-5.3,2.28-.66,2.13,2.39,1.86,3.82C279.48,417.62,277.25,420.49,275.32,423.07Z" style="fill:#455a64"></path><path d="M276.25,415.34c-1.07-.61-3.82,2.4-5.05,3.68a34.39,34.39,0,0,0-5,6.67,44.29,44.29,0,0,0-5.07,14l-.12.6v.05l0,.14s0,0,0,.05a.26.26,0,0,0,.35.23c.12-.36.25-.69.4-1a.69.69,0,0,1,.05-.13c0-.08.07-.17.11-.25.11-.26.22-.52.35-.77a58.91,58.91,0,0,1,6.68-10.2C271.75,424.62,277.66,416.16,276.25,415.34ZM275,418.81c-.27.53-.57,1.06-.87,1.58-.63,1.06-1.32,2.1-2,3.12-1.53,2.2-3.18,4.33-4.78,6.49a46.08,46.08,0,0,0-5.74,9.19c-.22.51-.41,1-.59,1.53.09-.4.17-.8.26-1.2a48.8,48.8,0,0,1,4.42-12.42,34.73,34.73,0,0,1,4.14-6.18,34.38,34.38,0,0,1,2.76-2.9c.41-.38,2.83-2.82,3.41-2.3C276.44,416.09,275.06,418.75,275,418.81Z" style="fill:#fff"></path><path d="M287.54,440.77c-4.15,2.71-9.12,3.76-14,4.32-2.6.3-5.21.48-7.81.72a34.8,34.8,0,0,0-6.94,1l-.3.1a8.44,8.44,0,0,0-1.78.81.15.15,0,0,1-.13,0l-.16.13s-.1,0-.07-.05l.13-.18v0a.13.13,0,0,1,.08-.15l.07,0a1.09,1.09,0,0,1,.13-.17c3.11-4.16,8.82-6.9,13.43-8.84s9.62-3.12,14.61-2.36c1.25.19,4.21.43,4.78,1.87S288.42,440.2,287.54,440.77Z" style="fill:#455a64"></path><path d="M284.5,439.05c-.4-1.46-4.46-.73-5.46-.58a53.76,53.76,0,0,0-8.83,2.28A47.34,47.34,0,0,0,257,447.11h0l-.17.07-.13.17s-.06,0-.07.05a.13.13,0,0,0-.08.15l.23-.08c.58-.22,1.18-.43,1.77-.62l.3-.09a101.15,101.15,0,0,1,12.77-2.66,48.3,48.3,0,0,0,8.79-2.27C281.1,441.57,284.83,440.28,284.5,439.05Zm-2,1.56c-4.51,2.53-10.12,3-15.12,3.9a53.59,53.59,0,0,0-10,2.45,50,50,0,0,1,12.1-5.61,64.41,64.41,0,0,1,7.32-2.12,26.52,26.52,0,0,1,4.07-.64,10.85,10.85,0,0,1,2.48.05C284.87,439,283.24,440.18,282.47,440.61Z" style="fill:#fff"></path><path d="M250.91,456.44a.27.27,0,0,1-.26,0s0,.06,0,.1a.07.07,0,0,1-.07.08.06.06,0,0,1-.09-.05C249,450.81,248,444.33,249,438.41a23,23,0,0,1,2.38-7.18c.82-1.53,2.47-4.61,4.38-5,3.85-.73.88,10,.42,11.59-.82,2.94-1.89,5.8-2.77,8.72-1,3.2-1.69,6.46-2.43,9.72A.2.2,0,0,1,250.91,456.44Z" style="fill:#455a64"></path><path d="M254.57,430.22c-.74.28-2.53,4.27-2.91,5.34a31.65,31.65,0,0,0-1.56,7.63,52.34,52.34,0,0,0,.43,13.05l.06.38a.08.08,0,0,0,.07-.09s0-.06,0-.09h0a.22.22,0,0,0,.21,0c0-.32,0-.63,0-.95a49.94,49.94,0,0,1,2.5-15.24,47,47,0,0,0,2-7.53C255.51,432.07,256,429.71,254.57,430.22Zm.66,2.11a13.26,13.26,0,0,1-.46,2.5c-.31,1.16-.66,2.3-1,3.45-.72,2.29-1.47,4.58-2,6.91a38.69,38.69,0,0,0-1.06,10.23,59,59,0,0,1-.43-10,36.71,36.71,0,0,1,1.06-7.66,27.79,27.79,0,0,1,.95-2.93,18.22,18.22,0,0,1,1-2.19c1-1.7,1.38-2.07,1.7-2S255.31,431,255.23,432.33Z" style="fill:#fff"></path><path d="M267.67,454.1a14.67,14.67,0,0,1-5.2,3.59c-3.85,1.75-8,2.65-12,4.12-.59.22-1.18.45-1.76.7-.06,0-.69.5-.66.45l.49-.58h0c1.5-1.76,6.13-7,9.41-9.16a30.11,30.11,0,0,1,6.5-3.42c1.1-.37,3.59-1.11,4.57-.08S268.39,453.26,267.67,454.1Z" style="fill:#455a64"></path><path d="M266.44,451.8c-.81-1.5-7.37,2.45-8.24,2.95a42.75,42.75,0,0,0-8.75,6.73l-.72.72-.07.08-.09.09c-.23.28-.4.47-.46.56l.63-.42.3-.13.45-.18c.33-.14.67-.27,1-.39h0c2.62-1.31,5.25-2.57,7.84-3.94a39.7,39.7,0,0,0,5.38-3.32C264.1,454.26,266.8,452.46,266.44,451.8Zm-1.29,1.43c-4.68,4-10.6,5.92-15.95,8.81l-.26.14c.11-.11.22-.23.34-.33a47.73,47.73,0,0,1,7.17-5.68,45.28,45.28,0,0,1,4.86-2.74,23.25,23.25,0,0,1,2.78-1.27c.43-.14,1.6-.47,1.78-.2S265.45,453,265.15,453.23Z" style="fill:#fff"></path><path d="M304.08,419.66c-8.65,6.47-20.76,4.87-29.75,10.73l0,0c-.28.18-.55.37-.81.56a.2.2,0,0,1-.31-.12.14.14,0,0,1,.06-.15,1.37,1.37,0,0,1,.2-.13,51.4,51.4,0,0,1,13.84-12.06c4.42-2.74,9.48-4.77,14.75-4.53,1.3.06,3.88.08,4.52,1.58S305.15,418.86,304.08,419.66Z" style="fill:#455a64"></path><path d="M300.5,418.1c-.27-.62-1.24-.61-1.77-.63a16.87,16.87,0,0,0-4,.32,27.29,27.29,0,0,0-7.6,2.81,56.21,56.21,0,0,0-11.51,7.77c-.78.71-1.53,1.43-2.24,2.2l-.26.29a.2.2,0,0,0,.31.12c.13-.11.27-.2.4-.29l.38-.26.07-.05A34,34,0,0,1,279.8,427a79.42,79.42,0,0,1,9.4-3.45C290.44,423.14,301.46,420.25,300.5,418.1Zm-1.73,1.65c-2.29,1.37-5,2-7.52,2.85s-5.09,1.67-7.62,2.56a37.49,37.49,0,0,0-5.83,2.61,29.1,29.1,0,0,0-4.41,3,40.49,40.49,0,0,1,3.92-3.47s0,0,.05,0a71.55,71.55,0,0,1,7.76-5.16l.1-.07a34.35,34.35,0,0,1,7.44-3.42,19.69,19.69,0,0,1,4.38-.82c1.68-.09,3,0,3.14.57C300.22,418.73,299.45,419.35,298.77,419.75Z" style="fill:#fff"></path><path d="M285.25,422.28c-2.5,1.78-5,3.63-7.45,5.49l-3.47,2.61-.07.05-.1.08-1.16.87c-3.77,2.85-7.76,5.69-11,9.13a38.55,38.55,0,0,0-4.57,5.92l0,0-.42.65h0l-.22.36c-.05.07-.08.14-.12.2-1.15,1.85-2.2,3.76-3.22,5.62-1.41,2.58-2.64,5.26-3.84,7.93v0a1.63,1.63,0,0,0-.11.23c-.06.12-.11.25-.17.37s-.05.12-.08.19a3.54,3.54,0,0,0-.16.34h0l-.78,1.72h-1a60.16,60.16,0,0,1,3.23-7.71h0l.07-.15c.12-.25.25-.51.39-.76s.3-.61.46-.91l0,0c.39-.75.78-1.49,1.18-2.22a61.85,61.85,0,0,1,8.14-12.17l.27-.29.12-.13.19-.21.33-.33c.19-.2.39-.39.59-.58l.17-.17h0a96,96,0,0,1,10.28-8c.63-.46,1.27-.91,1.91-1.35h0l1.07-.74,1.64-1.1s0,0,.05,0c2.58-1.74,5.19-3.42,7.76-5.16A.12.12,0,0,1,285.25,422.28Z" style="fill:#455a64"></path></g><g id="freepik--Lamp--inject-2"><polygon points="251.78 464.12 224.6 464.12 229.83 459.87 246.55 459.87 251.78 464.12" style="fill:#2CB67D"></polygon><polygon points="251.78 464.12 224.6 464.12 229.83 459.87 246.55 459.87 251.78 464.12" style="opacity:0.1"></polygon><polygon points="250.33 429.48 247.14 433.07 229.24 433.07 226.05 429.48 250.33 429.48" style="fill:#2CB67D"></polygon><polygon points="250.33 429.48 247.14 433.07 229.24 433.07 226.05 429.48 250.33 429.48" style="opacity:0.1"></polygon><path d="M246.72,429.48H229.66c1.94-17.52,5.24-24.11,8.52-24.11S244.78,412,246.72,429.48Z" style="fill:#2CB67D"></path><path d="M241.18,402.38a3,3,0,1,1-3-3A3,3,0,0,1,241.18,402.38Z" style="fill:#2CB67D"></path><g style="opacity:0.1"><path d="M233.18,426.27a.43.43,0,1,1-.42-.42A.42.42,0,0,1,233.18,426.27Z"></path><path d="M232.88,424.85c0,.33-.06.61-.12.61s-.13-.28-.13-.61.05-.61.13-.61S232.88,424.51,232.88,424.85Z"></path><path d="M231.84,425.17c.24.24.39.48.34.53s-.28-.11-.52-.35-.39-.47-.34-.52S231.6,424.94,231.84,425.17Z"></path><path d="M231.33,426.14c.34,0,.61.06.61.13s-.27.13-.61.13-.61-.06-.61-.13S231,426.14,231.33,426.14Z"></path><path d="M231.66,427.19c.24-.24.47-.39.52-.34s-.1.28-.34.52-.47.39-.52.34S231.42,427.43,231.66,427.19Z"></path><path d="M232.63,427.7c0-.34.05-.62.13-.62s.12.28.12.62-.06.61-.12.61S232.63,428,232.63,427.7Z"></path><path d="M233.67,427.37c-.24-.24-.39-.47-.34-.52s.28.1.52.34.39.47.34.52S233.91,427.61,233.67,427.37Z"></path><path d="M234.18,426.4c-.34,0-.61-.06-.61-.13s.27-.13.61-.13.61.06.61.13S234.52,426.4,234.18,426.4Z"></path><path d="M233.85,425.35c-.24.24-.47.4-.52.35s.1-.29.34-.53.47-.39.52-.34S234.09,425.12,233.85,425.35Z"></path></g><g style="opacity:0.1"><path d="M238.61,426.27a.42.42,0,1,1-.42-.42A.42.42,0,0,1,238.61,426.27Z"></path><path d="M238.32,424.85c0,.33-.06.61-.13.61s-.13-.28-.13-.61.06-.61.13-.61S238.32,424.51,238.32,424.85Z"></path><path d="M237.27,425.17c.24.24.39.48.34.53s-.28-.11-.52-.35-.39-.47-.34-.52S237,424.94,237.27,425.17Z"></path><path d="M236.77,426.14c.33,0,.61.06.61.13s-.28.13-.61.13-.62-.06-.62-.13S236.43,426.14,236.77,426.14Z"></path><path d="M237.09,427.19c.24-.24.47-.39.52-.34s-.1.28-.34.52-.47.39-.52.34S236.85,427.43,237.09,427.19Z"></path><path d="M238.06,427.7c0-.34.06-.62.13-.62s.13.28.13.62-.06.61-.13.61S238.06,428,238.06,427.7Z"></path><path d="M239.11,427.37c-.24-.24-.4-.47-.35-.52s.29.1.53.34.39.47.34.52S239.35,427.61,239.11,427.37Z"></path><path d="M239.61,426.4c-.33,0-.61-.06-.61-.13s.28-.13.61-.13.61.06.61.13S240,426.4,239.61,426.4Z"></path><path d="M239.29,425.35c-.24.24-.48.4-.53.35s.11-.29.35-.53.47-.39.52-.34S239.52,425.12,239.29,425.35Z"></path></g><g style="opacity:0.1"><path d="M244.05,426.27a.43.43,0,1,1-.43-.42A.42.42,0,0,1,244.05,426.27Z"></path><path d="M243.75,424.85c0,.33-.06.61-.13.61s-.12-.28-.12-.61.05-.61.12-.61S243.75,424.51,243.75,424.85Z"></path><path d="M242.71,425.17c.23.24.39.48.34.53s-.28-.11-.52-.35-.4-.47-.35-.52S242.47,424.94,242.71,425.17Z"></path><path d="M242.2,426.14c.34,0,.61.06.61.13s-.27.13-.61.13-.61-.06-.61-.13S241.86,426.14,242.2,426.14Z"></path><path d="M242.53,427.19c.24-.24.47-.39.52-.34s-.11.28-.34.52-.48.39-.53.34S242.29,427.43,242.53,427.19Z"></path><path d="M243.5,427.7c0-.34.05-.62.12-.62s.13.28.13.62-.06.61-.13.61S243.5,428,243.5,427.7Z"></path><path d="M244.54,427.37c-.24-.24-.39-.47-.34-.52s.28.1.52.34.39.47.34.52S244.78,427.61,244.54,427.37Z"></path><path d="M245.05,426.4c-.34,0-.61-.06-.61-.13s.27-.13.61-.13.61.06.61.13S245.39,426.4,245.05,426.4Z"></path><path d="M244.72,425.35c-.24.24-.47.4-.52.35s.1-.29.34-.53.47-.39.52-.34S245,425.12,244.72,425.35Z"></path></g><g style="opacity:0.1"><path d="M245.85,422.89H230.53c.07-.47.15-.93.22-1.37h14.88C245.7,422,245.78,422.42,245.85,422.89Z"></path><path d="M245.51,420.87H230.87l.09-.53h14.46Z"></path></g><path d="M213.23,439s1-7.61-1.55-9.5-19.19,6.79-19.19,12.28c0,5.28,20.74,9.27,20.74,9.27s-4,.58-3.86,2.08,3.7,2.62,5.07,1.75,2.87-4.22,2.48-5.2-16-5.7-16-8.56,5.69-5.17,6.77-5c.92.15,0,4.8,1.87,7.21.7.89,3.7,1,3.7,1Z" style="fill:#2CB67D"></path><path d="M213.23,439s1-7.61-1.55-9.5-19.19,6.79-19.19,12.28c0,5.28,20.74,9.27,20.74,9.27s-4,.58-3.86,2.08,3.7,2.62,5.07,1.75,2.87-4.22,2.48-5.2-16-5.7-16-8.56,5.69-5.17,6.77-5c.92.15,0,4.8,1.87,7.21.7.89,3.7,1,3.7,1Z" style="opacity:0.1"></path><path d="M307.51,431.83s-8-.92-10-.75-12.38,4.74-13.88,5.65-20.15,15.35-22.2,17-13.32,5.93-14.9,6.18-15.23.33-16.72,0-8.86-5.76-10.69-7.51-5.91-8.06-5.91-8.06V439s9.06.08,11.89-1.42a58.44,58.44,0,0,0,4.1-4.49h17.93a25.4,25.4,0,0,0,4.16,3.83c1.75,1.08,10.06.83,11.72.66s28.6-9.72,32.76-9.72a45.52,45.52,0,0,1,8.14.83l1.88,1Z" style="fill:#2CB67D"></path><g style="opacity:0.1"><path d="M219.55,452.46a.64.64,0,0,1,0,.24l-.37-.34c-.17-.17-.37-.38-.57-.62a.59.59,0,0,1,.23,0A.75.75,0,0,1,219.55,452.46Z"></path><path d="M219,449.92c0,.6-.1,1.09-.23,1.09s-.22-.49-.22-1.09.1-1.09.22-1.09S219,449.31,219,449.92Z"></path><ellipse cx="221.34" cy="452.46" rx="1.09" ry="0.23"></ellipse><path d="M220.76,450.82c-.43.43-.85.7-.93.61s.18-.5.61-.93.84-.7.93-.61S221.18,450.39,220.76,450.82Z"></path></g><g style="opacity:0.1"><circle cx="228.5" cy="452.46" r="0.75"></circle><ellipse cx="228.5" cy="449.92" rx="0.23" ry="1.09"></ellipse><path d="M226.86,450.5c.42.43.7.84.61.93s-.5-.18-.93-.61-.7-.84-.61-.93S226.43,450.07,226.86,450.5Z"></path><path d="M226,452.23c.61,0,1.1.1,1.1.23s-.49.22-1.1.22-1.09-.1-1.09-.22S225.35,452.23,226,452.23Z"></path><path d="M226.54,454.09c.43-.42.84-.7.93-.61s-.19.51-.61.93-.84.7-.93.61S226.11,454.52,226.54,454.09Z"></path><ellipse cx="228.5" cy="455" rx="0.23" ry="1.09"></ellipse><path d="M230.13,454.41c-.42-.42-.7-.84-.61-.93s.51.19.93.61.7.85.61.93S230.56,454.84,230.13,454.41Z"></path><path d="M231,452.68c-.61,0-1.09-.1-1.09-.22s.48-.23,1.09-.23,1.09.1,1.09.23S231.64,452.68,231,452.68Z"></path><path d="M230.45,450.82c-.42.43-.84.7-.93.61s.19-.5.61-.93.84-.7.93-.61S230.88,450.39,230.45,450.82Z"></path></g><g style="opacity:0.1"><path d="M238.94,452.46a.75.75,0,1,1-.75-.76A.75.75,0,0,1,238.94,452.46Z"></path><path d="M238.42,449.92c0,.6-.11,1.09-.23,1.09s-.23-.49-.23-1.09.1-1.09.23-1.09S238.42,449.31,238.42,449.92Z"></path><path d="M236.55,450.5c.43.43.7.84.61.93s-.5-.18-.93-.61-.7-.84-.61-.93S236.13,450.07,236.55,450.5Z"></path><path d="M235.65,452.23c.6,0,1.09.1,1.09.23s-.49.22-1.09.22-1.09-.1-1.09-.22S235.05,452.23,235.65,452.23Z"></path><path d="M236.23,454.09c.43-.42.85-.7.93-.61s-.18.51-.61.93-.84.7-.93.61S235.81,454.52,236.23,454.09Z"></path><path d="M238,455c0-.61.1-1.09.23-1.09s.23.48.23,1.09-.11,1.09-.23,1.09S238,455.6,238,455Z"></path><path d="M239.83,454.41c-.43-.42-.7-.84-.62-.93s.51.19.94.61.7.85.61.93S240.25,454.84,239.83,454.41Z"></path><ellipse cx="240.73" cy="452.46" rx="1.09" ry="0.23"></ellipse><path d="M240.15,450.82c-.43.43-.85.7-.94.61s.19-.5.62-.93.84-.7.93-.61S240.57,450.39,240.15,450.82Z"></path></g><g style="opacity:0.1"><path d="M248.64,452.46a.76.76,0,1,1-.76-.76A.76.76,0,0,1,248.64,452.46Z"></path><path d="M248.11,449.92c0,.6-.1,1.09-.23,1.09s-.22-.49-.22-1.09.1-1.09.22-1.09S248.11,449.31,248.11,449.92Z"></path><path d="M246.25,450.5c.42.43.7.84.61.93s-.51-.18-.93-.61-.7-.84-.61-.93S245.82,450.07,246.25,450.5Z"></path><ellipse cx="245.34" cy="452.46" rx="1.09" ry="0.23"></ellipse><path d="M245.93,454.09c.42-.42.84-.7.93-.61s-.19.51-.61.93-.85.7-.93.61S245.5,454.52,245.93,454.09Z"></path><path d="M247.66,455c0-.61.1-1.09.22-1.09s.23.48.23,1.09-.1,1.09-.23,1.09S247.66,455.6,247.66,455Z"></path><path d="M249.52,454.41c-.43-.42-.7-.84-.61-.93s.5.19.93.61.7.85.61.93S250,454.84,249.52,454.41Z"></path><path d="M250.42,452.68c-.6,0-1.09-.1-1.09-.22s.49-.23,1.09-.23,1.09.1,1.09.23S251,452.68,250.42,452.68Z"></path><path d="M249.84,450.82c-.43.43-.84.7-.93.61s.18-.5.61-.93.84-.7.93-.61S250.27,450.39,249.84,450.82Z"></path></g><g style="opacity:0.1"><path d="M258.33,452.46a.76.76,0,1,1-.75-.76A.76.76,0,0,1,258.33,452.46Z"></path><ellipse cx="257.58" cy="449.92" rx="0.23" ry="1.09"></ellipse><path d="M255.94,450.5c.43.43.7.84.61.93s-.5-.18-.93-.61-.7-.84-.61-.93S255.51,450.07,255.94,450.5Z"></path><path d="M255,452.23c.6,0,1.09.1,1.09.23s-.49.22-1.09.22-1.09-.1-1.09-.22S254.43,452.23,255,452.23Z"></path><path d="M255.62,454.09c.43-.42.84-.7.93-.61s-.18.51-.61.93-.84.7-.93.61S255.19,454.52,255.62,454.09Z"></path><path d="M257.8,455a6,6,0,0,1,0,.65h0l-.32.14a3.43,3.43,0,0,1-.08-.79c0-.61.1-1.09.23-1.09S257.8,454.39,257.8,455Z"></path><path d="M260,454.59l-.35.18c-.12-.1-.26-.22-.4-.36-.42-.42-.7-.84-.61-.93s.51.19.93.61A4.46,4.46,0,0,1,260,454.59Z"></path><ellipse cx="260.12" cy="452.46" rx="1.09" ry="0.23"></ellipse><path d="M259.53,450.82c-.42.43-.84.7-.93.61s.19-.5.61-.93.85-.7.93-.61S260,450.39,259.53,450.82Z"></path></g><polygon points="303.83 428.96 304.6 430.33 306.8 431.44 305.45 429.82 303.83 428.96" style="opacity:0.30000000000000004"></polygon></g><g id="freepik--Floor--inject-2"><polygon points="45.71 464.32 96.78 464.07 147.86 463.99 250 463.82 352.14 463.98 403.22 464.07 454.29 464.32 403.22 464.56 352.14 464.65 250 464.82 147.86 464.65 96.78 464.56 45.71 464.32" style="fill:#263238"></polygon></g><g id="freepik--Character--inject-2"><path d="M316.41,251.15c.33,2.75-.77,54.66-27.43,72.83-16.09,11-92.46.77-99.32,2-8.32,1.5-14.63,21.06-10.92,23.78,9.79,7.15,64.33-14.47,93.94-15.13,19.87-.45,88.79,28.41,96.27,36.74,9.49,10.57-12.45,35.3-19.89,35s-43.09-9.68-47.46-8.71-13.42,7.44-10.18,10.19,29.23-3.26,32.79-2,7,6.65,5.17,12.35c-1,3.12-18.95,10.76-23.68,11.62,0,0,17.87-8.61,18-13.32,0-1.45-3-3.37-4.05-3.62s-41.4,11.46-46.5,4.51,9.31-34.43,19-36.37,52.72,7.86,55,7.53,3-1.32,2.68-2.94-58.89-18.72-65.48-18.56c-7,.16-103,24.73-120.71,19.78C147,382.18,127,340.91,128.82,332.89c3.19-14.24,32.3-46.47,45.75-50.22,11-3.06,37.57,1.69,58-2.18,7.37-1.4,11-29.55,11-29.55Z" style="fill:#2CB67D;opacity:0.8"></path><path d="M191.44,277.57s-16.35-.61-19.7,1-14,10.7-14,10.7,8.16-12,11.89-14S191.44,277.57,191.44,277.57Z" style="fill:#2CB67D;opacity:0.8"></path><path d="M361.61,404s-8.29,6.28-12.11,5.79-12.44-4.37-12.44-4.37,10,8.72,14.37,8.26S361.61,404,361.61,404Z" style="fill:#2CB67D;opacity:0.8"></path><path d="M153.4,384.91s7.6,5.09,9.91,5.44a56.73,56.73,0,0,0,7.71.06s-5.93,2.66-8.21,2.37S153.4,384.91,153.4,384.91Z" style="fill:#2CB67D;opacity:0.8"></path><path d="M199,280.13s-7.12-5.73-9.39-6.29a56.68,56.68,0,0,0-7.68-.73s6.15-2.14,8.39-1.64S199,280.13,199,280.13Z" style="fill:#2CB67D;opacity:0.8"></path><path d="M281.54,113c2.48.41,17.53,3.43,23.51,6.55s47.88,29.84,51.67,38.7,2.35,22.35-.47,23.76S327.11,168.55,322,164.5s-39.44-37.27-41.14-41.08C279.76,121,274.3,111.85,281.54,113Z" style="fill: rgb(119, 68, 66);"></path><path d="M249.07,225.58l44.21,11.76,22.3-7.7s3.57-30.93,1.08-59.35c-1.07-12.35-2.21-24.26-7.89-34.26-4.4-7.75-22-21-27.23-23-6.75-2.6-18.13-3-25,2.33-8.87,7-20.79,18.22-22.41,27-4.29,23.33,15.06,66.14,15.78,71.06A26.07,26.07,0,0,1,249.07,225.58Z" style="fill: rgb(119, 68, 66);"></path><path d="M278.83,129.61c-4.29,1.4-15.57-4.21-21-10.08-.37-.4-.88-5.5-1.8-11.65-.57-3.74-1.3-7.88-2.23-11.62l24.84-.17s-.34,8.4,1.33,14.9a9.75,9.75,0,0,0,.54,1.5c0,.07.07.15.1.24C281.82,115.52,285.55,127.42,278.83,129.61Z" style="fill: rgb(119, 68, 66);"></path><path d="M280.51,112.49c0,.07.07.14.11.24a15.34,15.34,0,0,1-2.39.73c-13.39,3-20.71-12.38-22.63-17.21l23-.17s-.34,8.41,1.31,14.92A10.92,10.92,0,0,0,280.51,112.49Z" style="fill:#263238"></path><path d="M246.2,63.43c-2.16,8.69,3.67,33.14,10.05,38.32,9.24,7.52,23.71,7.51,29.93-3.45,6-10.62-2.14-42.36-9.19-47C266.59,44.47,249.38,50.59,246.2,63.43Z" style="fill: rgb(119, 68, 66);"></path><path d="M267.41,76.24s-.11.11-.1.18c.44,1.64.66,3.59-.71,4.48,0,0,0,.11,0,.09C268.4,80.31,268.08,77.73,267.41,76.24Z" style="fill:#263238"></path><path d="M265.54,74.86c-2.7.41-1.69,5.78.82,5.4S267.8,74.52,265.54,74.86Z" style="fill:#263238"></path><path d="M277.16,74c0-.06.14.06.15.13.26,1.67.85,3.54,2.46,3.81.05,0,.06.09,0,.09C277.88,78.16,277.14,75.67,277.16,74Z" style="fill:#263238"></path><path d="M278.31,72c2.64-.71,3.87,4.62,1.42,5.28S276.1,72.62,278.31,72Z" style="fill:#263238"></path><path d="M263.21,74.81a19.55,19.55,0,0,0,1.94-1.12,3.68,3.68,0,0,0,1.77-1.53,1.16,1.16,0,0,0-.45-1.34,2.85,2.85,0,0,0-2.89.25,4.2,4.2,0,0,0-2.05,2.24A1.23,1.23,0,0,0,263.21,74.81Z" style="fill:#263238"></path><path d="M279.66,68.63a20.89,20.89,0,0,1-2.24-.15,3.6,3.6,0,0,1-2.25-.59,1.15,1.15,0,0,1-.2-1.4,2.86,2.86,0,0,1,2.7-1.06,4.22,4.22,0,0,1,2.83,1.1A1.24,1.24,0,0,1,279.66,68.63Z" style="fill:#263238"></path><path d="M269.31,91.91c.47.32,1,.78,1.58.71a4.52,4.52,0,0,0,1.71-.75.06.06,0,0,1,.09.07,2.28,2.28,0,0,1-1.94,1.3A1.81,1.81,0,0,1,269.16,92C269.12,91.93,269.24,91.87,269.31,91.91Z" style="fill:#263238"></path><path d="M270.11,86.6a5.73,5.73,0,0,0,4.26,1.8,7.15,7.15,0,0,0,2.05-.29,2.22,2.22,0,0,0,.39-.12l.35-.12a.43.43,0,0,0,.26-.44h0a.55.55,0,0,0-.05-.17h0l0-.15c-.21-1.28-.7-3.21-.7-3.21.51.15,3.1.77,2.94.11-1.39-5.48-2.92-11.57-5.45-16.73a.16.16,0,0,0-.3.1c1.12,5.31,3.17,10.4,4.38,15.72a10.31,10.31,0,0,0-2.83-.3c-.17.08,1,3.7,1.07,4.29v.06c-2.1.68-3.85.34-6.21-.71C270.1,86.35,270,86.49,270.11,86.6Z" style="fill:#263238"></path><path d="M275.55,87.6a6.89,6.89,0,0,1-2.3,2.6,3.1,3.1,0,0,1-1.81.46c-1.4-.1-1.66-1.31-1.62-2.4a7.53,7.53,0,0,1,.3-1.71A8.83,8.83,0,0,0,275.55,87.6Z" style="fill:#263238"></path><path d="M273.25,90.2a3.1,3.1,0,0,1-1.81.46c-1.4-.1-1.66-1.31-1.62-2.4A3.19,3.19,0,0,1,273.25,90.2Z" style="fill:#ff9bbc"></path><path d="M246.7,80.94c2.52,3.15,4.67,2,5.27,2.72s.72,2.75.82,3.16,2.31.81,2.82-.49c.24-.62-1.52-7.2-2-9.92-1.67-8.9,0-13.13,5.26-15.57,5.8-2.66,10.17,2,13.37,1,2.76-.84,2.9-4.26,4.84-4.75,2.26-.58,6.07,4,6.66,5.67-1.91-5.6-3.47-9.14-6.71-11.78-10-8.15-28.28-1.13-31.61,12.44C244.42,67.47,245.14,74.67,246.7,80.94Z" style="fill:#263238"></path><path d="M252.55,83.27s-6.16-7.56-9.64-5.31,1.57,13.51,5.94,14.78A4.34,4.34,0,0,0,254.47,90Z" style="fill: rgb(119, 68, 66);"></path><path d="M244.44,81.15a.06.06,0,0,0,0,.12c3.07,1,4.84,3.63,6.15,6.42-1-1-2.22-1.56-3.62-.39-.07.06,0,.17.1.15a2.66,2.66,0,0,1,3,.71,13.09,13.09,0,0,1,1.58,2.26c.15.26.62.08.5-.22l0-.06C251.89,86.33,248.54,81.23,244.44,81.15Z" style="fill:#263238"></path><path d="M285,66.86c.13-.23,1.09-7.53-.74-13a17.48,17.48,0,0,0-5.85-7.14c-.92-.71-4.15-5.41-5.72-6.19-3.39-1.69-12.6-4.48-14.76-4.37-3.41.17-7.65,2.44-8.54,3.1-1.4,1-9,4.94-12.21,10.46-1.94,3.31-2.23,7.75-3.72,11.08-.73,1.64-2.84,10.17-1.56,16.33,1.68,8.16,13.44,14.2,14.26,14.48,0,0,1-11.74,3.75-15,2.48-3,7.1-7.18,13.26-13.69,4.06-4.29,5.91-13.19,5.91-13.19s6.73,8.35,11.81,11C283.6,62.15,285,66.86,285,66.86Z" style="fill:#2CB67D"></path><path d="M261.41,50.71a22.27,22.27,0,0,1,1-3,5.45,5.45,0,0,1,1.62-1.95,7.19,7.19,0,0,1,1.05-.67c.19-.11.39-.21.59-.31a5.1,5.1,0,0,1,.55-.19l-.25-.38a4.12,4.12,0,0,0-.73.12,8.08,8.08,0,0,0-1,.24,6.53,6.53,0,0,0-1.61.85,7.32,7.32,0,0,0-1.36,1.42L260,48.62a0,0,0,0,1,0,0A15.55,15.55,0,0,1,262.53,45a4.55,4.55,0,0,1,1.66-.9,4.08,4.08,0,0,1,1-.21,2.67,2.67,0,0,1,.63,0c-.2-.3-.38-.61-.59-.9a31.5,31.5,0,0,0-5-5.4c-.06,0,0-.13.09-.1a18.41,18.41,0,0,1,4.15,3.23,15.27,15.27,0,0,1,2.23.2,9.53,9.53,0,0,1,2.21.72,10.89,10.89,0,0,1,3.59,2.72,0,0,0,0,1-.05.05,10.73,10.73,0,0,0-3.76-2.5,12,12,0,0,0-2.12-.63c-.59-.11-1.18-.17-1.76-.23.45.48.89,1,1.29,1.5a19.82,19.82,0,0,1,1.42,2.1c1,.24,2,.31,3,.61a9.12,9.12,0,0,1,2.54,1.3,34.7,34.7,0,0,1,4.28,3.85s0,.11-.06.07a28.43,28.43,0,0,0-4.52-3.35,33,33,0,0,0-5-2.08,6.77,6.77,0,0,1,.36.65,29.77,29.77,0,0,1,1.21,3.71c.05.14-.2.23-.25.09a18.74,18.74,0,0,0-1.76-3.27l-.83-1.39c-.27.21-.52.43-.8.63s-.67.52-1,.78A6.38,6.38,0,0,0,263,48.15a20.72,20.72,0,0,0-1.14,2.71c-.38,1-.7,2-1.14,2.9,0,.07-.16.06-.14,0A29.5,29.5,0,0,1,261.41,50.71Z" style="opacity:0.1"></path><path d="M237.78,72.69c.68-2.11,2.24-3.63,3.53-5.37a7.79,7.79,0,0,0,1.53-3.69,22.75,22.75,0,0,1,.58-3.28c0-.06.12,0,.1,0-.52,2.12-.23,4.32-1.12,6.36-.83,1.89-2.24,3.47-2.86,5.46-1.41,4.56-.2,9.9,1.89,14.05.08.16-.17.28-.24.12C239.31,82,236.17,77.69,237.78,72.69Z" style="opacity:0.1"></path><path d="M232.87,62.57a12,12,0,0,1,2.22-4.69c1.36-1.57,3.25-2.58,4.67-4.1a19.65,19.65,0,0,0,3.43-5.37c.08-.15.34-.07.26.09-.85,1.73-1.6,3.53-2.55,5.21A11.83,11.83,0,0,1,239.32,56,20.3,20.3,0,0,1,237,58.06a13.23,13.23,0,0,0-3.58,4.42,32.35,32.35,0,0,0-1.59,5.3s-.09,0-.08,0A35.51,35.51,0,0,1,232.87,62.57Z" style="opacity:0.1"></path><path d="M248.17,71.56c3.47-4.45,8.22-7.71,11.13-12.61.09-.15.31,0,.22.15-2.72,4.53-6.44,8.4-9.75,12.49a30.47,30.47,0,0,0-4.42,6.92,20,20,0,0,0-1.57,8.64s-.07,0-.07,0A22.3,22.3,0,0,1,248.17,71.56Z" style="opacity:0.1"></path><path d="M273,50.46c2,2.78,4.88,4.4,7.7,6.24a7.52,7.52,0,0,1,3.08,3.38,24.78,24.78,0,0,1,1,4.59c0,.17-.24.23-.26.06A9.42,9.42,0,0,0,282.91,60c-1-1.3-2.59-2.11-3.85-3.12a26,26,0,0,1-6.14-6.41S273,50.41,273,50.46Z" style="opacity:0.1"></path><path d="M270.73,52.16s0-.06-.06-.1-.17-.3-.24-.45,0,0,0,0-.16-.28-.23-.4l0,0c-.09-.14-.16-.28-.23-.38l-.05-.06a.14.14,0,0,1,.06,0s.06,0,.11-.09.06-.05.1-.1a1,1,0,0,0,.16-1,1.19,1.19,0,0,0-1.08-.94s.08,0,.1-.07a.63.63,0,0,0,.13-.11,1.54,1.54,0,0,0-.47-2,.62.62,0,0,0-.38-.11l.06,0s.07-.06.09-.11a1.3,1.3,0,0,0,.1-.15.27.27,0,0,0,0-.12.19.19,0,0,0,0-.09.09.09,0,0,0,0-.07,1.45,1.45,0,0,0-.78-1.49.68.68,0,0,0-.37-.06,1.25,1.25,0,0,0,.32-.58c.1-.7-.6-1.44-1.22-1.18a.68.68,0,0,0,.28-.3,1,1,0,0,0-.52-1.28.69.69,0,0,0-.93.77,1.05,1.05,0,0,0,.39.64,1.4,1.4,0,0,0,.2.16.48.48,0,0,0,.46.06,1.9,1.9,0,0,0-.21.19,1.1,1.1,0,0,0,.83,1.66,1,1,0,0,0-.3.31,1.31,1.31,0,0,0,0,1.11,1.26,1.26,0,0,0,.81.75l.15,0h0s0,0,0,0a1.44,1.44,0,0,0-.41,1.3,1.3,1.3,0,0,0,1,1,1.14,1.14,0,0,0-.35,1.06,1.21,1.21,0,0,0,.72,1,1.37,1.37,0,0,0,.34.07v0c0,.18,0,.36,0,.56a1.08,1.08,0,0,0,0,.18,11.11,11.11,0,0,0,.05,1.49c.26,4,1.54,9.81,3.5,9.1S272.39,55.32,270.73,52.16Zm1.87,9.2c-1.66.54-3.18-9.39-2.7-9.61S274.25,60.82,272.6,61.36Z" style="fill:#ebebeb"></path><path d="M266.76,51.1a1,1,0,0,0,2-.38,1,1,0,0,0-2,.38Z" style="fill:#ebebeb"></path><path d="M266.09,48.76a1,1,0,0,0,2-.38,1,1,0,1,0-2,.38Z" style="fill:#ebebeb"></path><path d="M269.6,48.51a1,1,0,1,0,.79-1.18A1,1,0,0,0,269.6,48.51Z" style="fill:#ebebeb"></path><path d="M271.16,49.81a1,1,0,1,0,.79-1.18A1,1,0,0,0,271.16,49.81Z" style="fill:#ebebeb"></path><path d="M272.9,50.83a1,1,0,1,0,.79-1.17A1,1,0,0,0,272.9,50.83Z" style="fill:#ebebeb"></path><path d="M274.53,52a1,1,0,0,0,2-.38,1,1,0,1,0-2,.38Z" style="fill:#ebebeb"></path><path d="M276.27,53a1,1,0,1,0,.79-1.17A1,1,0,0,0,276.27,53Z" style="fill:#ebebeb"></path><path d="M278.06,53.89a1,1,0,1,0,.79-1.17A1,1,0,0,0,278.06,53.89Z" style="fill:#ebebeb"></path><path d="M279.93,54.64a1,1,0,1,0,.79-1.18A1,1,0,0,0,279.93,54.64Z" style="fill:#ebebeb"></path><path d="M281.92,54.42a1,1,0,1,0,.79-1.17A1,1,0,0,0,281.92,54.42Z" style="fill:#ebebeb"></path><path d="M283.65,58a1,1,0,1,0,.79-1.17A1,1,0,0,0,283.65,58Z" style="fill:#ebebeb"></path><path d="M282.91,59.86a1,1,0,1,0,.79-1.17A1,1,0,0,0,282.91,59.86Z" style="fill:#ebebeb"></path><path d="M280.89,60a1,1,0,1,0,.79-1.18A1,1,0,0,0,280.89,60Z" style="fill:#ebebeb"></path><path d="M279.14,59a1,1,0,0,0,1.17.79,1,1,0,1,0-1.17-.79Z" style="fill:#ebebeb"></path><path d="M277.46,57.9a1,1,0,0,0,1.18.79,1,1,0,1,0-1.18-.79Z" style="fill:#ebebeb"></path><path d="M275.83,56.73a1,1,0,1,0,.79-1.18A1,1,0,0,0,275.83,56.73Z" style="fill:#ebebeb"></path><path d="M274.3,55.42a1,1,0,1,0,.79-1.17A1,1,0,0,0,274.3,55.42Z" style="fill:#ebebeb"></path><path d="M272.81,54.13a1,1,0,0,0,1.18.79,1,1,0,0,0-.39-2A1,1,0,0,0,272.81,54.13Z" style="fill:#ebebeb"></path><path d="M271.29,52.81a1,1,0,1,0,.79-1.18A1,1,0,0,0,271.29,52.81Z" style="fill:#ebebeb"></path><path d="M269.85,51.39a1,1,0,1,0,.79-1.18A1,1,0,0,0,269.85,51.39Z" style="fill:#ebebeb"></path><path d="M281.66,52.43a1,1,0,1,0,.79-1.17A1,1,0,0,0,281.66,52.43Z" style="fill:#ebebeb"></path><path d="M283.81,56a1,1,0,1,0,2-.39,1,1,0,0,0-1.17-.79A1,1,0,0,0,283.81,56Z" style="fill:#ebebeb"></path><path d="M264.64,50.13a1,1,0,0,0,1.18.79,1,1,0,1,0-1.18-.79Z" style="fill:#ebebeb"></path><path d="M263.17,51.47A1,1,0,1,0,264,50.3,1,1,0,0,0,263.17,51.47Z" style="fill:#ebebeb"></path><path d="M261.69,52.78a1,1,0,1,0,.79-1.17A1,1,0,0,0,261.69,52.78Z" style="fill:#ebebeb"></path><path d="M260.22,54.14A1,1,0,1,0,261,53,1,1,0,0,0,260.22,54.14Z" style="fill:#ebebeb"></path><path d="M258.73,55.45a1,1,0,1,0,.79-1.18A1,1,0,0,0,258.73,55.45Z" style="fill:#ebebeb"></path><path d="M257.19,56.73a1,1,0,1,0,.79-1.18A1,1,0,0,0,257.19,56.73Z" style="fill:#ebebeb"></path><path d="M255.64,58a1,1,0,1,0,.79-1.18A1,1,0,0,0,255.64,58Z" style="fill:#ebebeb"></path><path d="M254.1,59.23a1,1,0,0,0,2-.38,1,1,0,0,0-2,.38Z" style="fill:#ebebeb"></path><path d="M252.5,60.36a1,1,0,1,0,2-.38,1,1,0,1,0-2,.38Z" style="fill:#ebebeb"></path><path d="M250.87,61.45a1,1,0,1,0,.79-1.17A1,1,0,0,0,250.87,61.45Z" style="fill:#ebebeb"></path><path d="M249.15,62.45a1,1,0,0,0,2-.38,1,1,0,0,0-2,.38Z" style="fill:#ebebeb"></path><path d="M247.42,63.4a1,1,0,1,0,2-.39,1,1,0,0,0-2,.39Z" style="fill:#ebebeb"></path><path d="M245.64,64.23a1,1,0,1,0,.79-1.17A1,1,0,0,0,245.64,64.23Z" style="fill:#ebebeb"></path><path d="M243.86,65a1,1,0,1,0,.79-1.18A1,1,0,0,0,243.86,65Z" style="fill:#ebebeb"></path><path d="M242,65.42a1,1,0,0,0,2-.38,1,1,0,0,0-2,.38Z" style="fill:#ebebeb"></path><path d="M239.94,65.28a1,1,0,0,0,1.18.79,1,1,0,0,0-.39-2A1,1,0,0,0,239.94,65.28Z" style="fill:#ebebeb"></path><path d="M238.05,64.53a1,1,0,0,0,2-.39,1,1,0,0,0-2,.39Z" style="fill:#ebebeb"></path><path d="M236.5,63.25a1,1,0,1,0,.79-1.18A1,1,0,0,0,236.5,63.25Z" style="fill:#ebebeb"></path><path d="M235.19,61.74a1,1,0,1,0,.79-1.18A1,1,0,0,0,235.19,61.74Z" style="fill:#ebebeb"></path><path d="M234.22,60a1,1,0,1,0,.79-1.18A1,1,0,0,0,234.22,60Z" style="fill:#ebebeb"></path><path d="M233.38,58.21a1,1,0,1,0,.79-1.18A1,1,0,0,0,233.38,58.21Z" style="fill:#ebebeb"></path><path d="M265.72,52.8a1,1,0,1,0,.79-1.17A1,1,0,0,0,265.72,52.8Z" style="fill:#ebebeb"></path><path d="M264.51,54.41a1,1,0,1,0,.79-1.17A1,1,0,0,0,264.51,54.41Z" style="fill:#ebebeb"></path><path d="M263.39,56.09a1,1,0,1,0,.79-1.17A1,1,0,0,0,263.39,56.09Z" style="fill:#ebebeb"></path><path d="M262.32,57.81a1,1,0,0,0,2-.38,1,1,0,0,0-1.18-.79A1,1,0,0,0,262.32,57.81Z" style="fill:#ebebeb"></path><path d="M261.24,59.49a1,1,0,1,0,.79-1.17A1,1,0,0,0,261.24,59.49Z" style="fill:#ebebeb"></path><path d="M259.94,61a1,1,0,1,0,.79-1.17A1,1,0,0,0,259.94,61Z" style="fill:#ebebeb"></path><path d="M258.71,62.57a1,1,0,1,0,.79-1.17A1,1,0,0,0,258.71,62.57Z" style="fill:#ebebeb"></path><path d="M257.42,64.1a1,1,0,1,0,.79-1.18A1,1,0,0,0,257.42,64.1Z" style="fill:#ebebeb"></path><path d="M256.17,65.64a1,1,0,1,0,.79-1.17A1,1,0,0,0,256.17,65.64Z" style="fill:#ebebeb"></path><path d="M254.72,67.05a1,1,0,1,0,.79-1.17A1,1,0,0,0,254.72,67.05Z" style="fill:#ebebeb"></path><path d="M253.43,68.63a1,1,0,1,0,.79-1.18A1,1,0,0,0,253.43,68.63Z" style="fill:#ebebeb"></path><path d="M252,70a1,1,0,1,0,.79-1.17A1,1,0,0,0,252,70Z" style="fill:#ebebeb"></path><path d="M250.51,71.29a1,1,0,1,0,.79-1.17A1,1,0,0,0,250.51,71.29Z" style="fill:#ebebeb"></path><path d="M249.07,72.65a1,1,0,1,0,.78-1.18A1,1,0,0,0,249.07,72.65Z" style="fill:#ebebeb"></path><path d="M247.54,73.91a1,1,0,0,0,2-.38,1,1,0,0,0-2,.38Z" style="fill:#ebebeb"></path><path d="M245.86,74.9a1,1,0,1,0,.79-1.18A1,1,0,0,0,245.86,74.9Z" style="fill:#ebebeb"></path><path d="M244,75.68a1,1,0,1,0,.79-1.17A1,1,0,0,0,244,75.68Z" style="fill:#ebebeb"></path><path d="M242,76.23a1,1,0,1,0,.79-1.18A1,1,0,0,0,242,76.23Z" style="fill:#ebebeb"></path><path d="M240,76.45a1,1,0,1,0,.79-1.17A1,1,0,0,0,240,76.45Z" style="fill:#ebebeb"></path><path d="M238.12,76.26a1,1,0,0,0,1.17.79,1,1,0,1,0-1.17-.79Z" style="fill:#ebebeb"></path><path d="M236.3,75.48a1,1,0,1,0,.79-1.18A1,1,0,0,0,236.3,75.48Z" style="fill:#ebebeb"></path><path d="M234.61,74.46a1,1,0,1,0,.79-1.18A1,1,0,0,0,234.61,74.46Z" style="fill:#ebebeb"></path><path d="M233.22,73.05a1,1,0,0,0,1.17.79,1,1,0,0,0,.79-1.18,1,1,0,0,0-2,.39Z" style="fill:#ebebeb"></path><path d="M232,71.49a1,1,0,1,0,.79-1.18A1,1,0,0,0,232,71.49Z" style="fill:#ebebeb"></path><path d="M230.85,69.83a1,1,0,0,0,2-.38,1,1,0,0,0-1.18-.79A1,1,0,0,0,230.85,69.83Z" style="fill:#ebebeb"></path><path d="M303.49,205.68a3.35,3.35,0,0,0-.77,1.39,6.94,6.94,0,0,0-.29,1.55,8.91,8.91,0,0,0,.4,3.09c.17.47.46.87.75.84s.52-.39.57-.9a5.48,5.48,0,0,0-.15-1.55,3.55,3.55,0,0,0-.68-1.46,3.07,3.07,0,0,1,1,1.34,4.39,4.39,0,0,1,.38,1.69,2.14,2.14,0,0,1-.17.94,1.09,1.09,0,0,1-.92.63,1.2,1.2,0,0,1-1-.45,2.84,2.84,0,0,1-.47-.82,6.89,6.89,0,0,1-.36-1.7,6.2,6.2,0,0,1,0-1.72A4,4,0,0,1,303.49,205.68Z" style="fill:#263238"></path><path d="M304.72,149.51c.29,1.82,1.4,3.15,2.48,3s1.71-1.79,1.41-3.61-1.4-3.15-2.47-3S304.43,147.69,304.72,149.51Z" style="opacity:0.1"></path><path d="M270.8,156.36c.3,1.82,1.65,3.11,3,2.89s2.27-1.88,2-3.7-1.65-3.11-3-2.88S270.51,154.54,270.8,156.36Z" style="opacity:0.1"></path><path d="M317.76,178.53c-.09-2.1-.19-4.19-.33-6.28-.27-4.15-.62-8.29-1.09-12.42-.76-6.68-2-13.33-4.82-19.48a28.29,28.29,0,0,0-1.78-3.36c-.53-1.27-1.12-2.51-1.73-3.74,0,0-.08,0-.07,0,.37.91.75,1.81,1.15,2.71a27.4,27.4,0,0,0-3.79-4.5s-.09,0-.06.07c4.39,4.93,6.91,11.32,8.25,17.71a176.86,176.86,0,0,1,2.7,21.65l.57,6.89c.1,1.15.19,2.3.3,3.45s.38,2.29.51,3.45a.1.1,0,0,0,.19,0c0-1,.14-2,.11-3.09S317.8,179.56,317.76,178.53Z" style="fill:#263238"></path><path d="M355.85,182c-2.72,2.17-28.14,3.53-33,3.31s-36.55-3.44-39.36-5.51,2.53-19.32,4.71-20.71,38.66-7.49,46.64-7.08,20.83,11.36,22.63,14.71S357.18,181,355.85,182Z" style="fill: rgb(119, 68, 66);"></path><path d="M352.69,161.26a49,49,0,0,0-5.51-4c1.26.47,2.5,1,3.7,1.55a0,0,0,0,0,.05-.08,16.87,16.87,0,0,0-4.85-2.16c-.95-.57-1.91-1.12-2.88-1.63a49,49,0,0,0-5.21-2.4,12.9,12.9,0,0,0-5.67-.75c-8.15.6-28.87,4-31.14,4.47s-4.55,1.18-6.85,1.66c-.09,0-.05.17.05.15,2-.42,4.07-.64,6.1-.95s25.85-3.69,29.86-4.13a16.5,16.5,0,0,1,5.82-.06,27.07,27.07,0,0,1,5.28,2.21c3.82,1.91,7.49,4.07,11.13,6.32C352.67,161.48,352.78,161.33,352.69,161.26Z" style="fill:#263238"></path><path d="M317.12,184.71a62.83,62.83,0,0,0-7.76-.84c-2.69-.25-5.38-.56-8.06-.91s-5.27-.74-7.9-1.13-5.25-.92-7.89-1.28c-.1,0-.14.12,0,.15,2,.6,4,1,6,1.45s4.07.81,6.11,1.15c4.1.69,8.24,1.14,12.38,1.49a36.55,36.55,0,0,0,7.09.18A.13.13,0,0,0,317.12,184.71Z" style="fill:#263238"></path><path d="M235.33,138.38c-5.64,6.08-4.88,27.8,1.35,35.81,7.34,9.45,38.66,42.43,52.09,37.2s38.32-54.72,39.59-56.28l2.35-2.83c1.26-.59,4.44.33,4.76-.58.47-1.34-6-4.45-7-4.51-2.8-.14-8.07,1.54-12,2-2.84.34-8,5-10.58,6.62-3.36,2.16-21,16.12-21.62,16.14s-14.57-27.07-20-29.67S240.42,132.89,235.33,138.38Z" style="fill: rgb(119, 68, 66);"></path><path d="M335.49,150.94a5.62,5.62,0,0,0-2.46-2.11,29.11,29.11,0,0,0-3.56-1.6,4.09,4.09,0,0,0-1.72-.36,15.32,15.32,0,0,0-2.22.36c-1.45.25-2.89.53-4.34.81s-2.95.53-4.42.86a11.39,11.39,0,0,0-3.71,1.67c-1.41.92-2.81,1.86-4.16,2.85-.66.48-7.49,5-9.6,6.39q-3.42,2.31-6.7,4.81c-2.78,2.12-5.49,4.34-8.1,6.66a15.09,15.09,0,0,0-1-1.9c-.52-.91-1.06-1.83-1.59-2.74-1.09-1.87-2.19-3.72-3.34-5.55s-2.27-3.56-3.43-5.33l-.1-.14a12.32,12.32,0,0,0-.71-1.92c-.37-.75-.77-1.49-1.18-2.22a0,0,0,0,0,0,0c.32.78.62,1.57.92,2.37.08.23.18.46.28.69-.94-1.38-1.91-2.73-2.89-4.08-.06-.09-.18,0-.13.1,1.05,1.84,2.06,3.71,3.15,5.53l3.26,5.46q1.63,2.72,3.3,5.42l1.65,2.71a14.11,14.11,0,0,0,1.35,2.07c-1.31,1.18-2.6,2.38-3.84,3.64-1.09,1.1-2.17,2.23-3.23,3.37s-2,2.35-3.06,3.53a.08.08,0,0,0,.12.1c2-2,4.06-3.87,6.12-5.76s4-3.6,6.07-5.39c4.08-3.58,8.35-6.94,12.76-10.1,2.5-1.79,8.76-6.12,9.33-6.51l3.09-2.14c1-.7,2.05-1.44,3.13-2.06a11.17,11.17,0,0,1,3.55-1.18c2.53-.49,5.06-.94,7.58-1.45a18.64,18.64,0,0,1,1.95-.38,3.89,3.89,0,0,1,2,.37,34.25,34.25,0,0,1,3.27,1.46,6.66,6.66,0,0,1,1.52,1c.32.28,1.45,1.4.67,1.72a3,3,0,0,1-.89,0H333a20.17,20.17,0,0,0-2.06.05,8.52,8.52,0,0,0,.48-.83s0-.09-.07,0c-.58.58-1.08,1.27-1.61,1.9s-1.06,1.28-1.56,2c-1,1.32-1.95,2.63-2.83,4-.05.07.06.15.12.09.64-.64,1.23-1.32,1.81-2-4.54,8.81-15.36,28.08-24.65,40a89.25,89.25,0,0,1-7.49,8.86,31.19,31.19,0,0,1-4.42,3.78,8.7,8.7,0,0,1-6.12,1.23A28.52,28.52,0,0,1,273.85,207a99.22,99.22,0,0,1-9.8-6.71c-3.18-2.38-6.3-4.87-9.3-7.47s-5.89-5.45-8.68-8.32c-.7-.72-1.4-1.45-2.09-2.19-.09-.09-.24,0-.16.14q2,2.25,4,4.4l-1.22-.75a13.93,13.93,0,0,1-1.9-1.35s-.06,0,0,0a10,10,0,0,0,1.72,1.66,6.3,6.3,0,0,0,2,.95c1.27,1.32,2.57,2.62,3.89,3.88,3,2.85,6,5.65,9.25,8.23a115.76,115.76,0,0,0,9.87,7.2,35.93,35.93,0,0,0,10.5,4.89,15.47,15.47,0,0,0,6,.52,10.88,10.88,0,0,0,5.21-2.69,58.24,58.24,0,0,0,8.23-8.53c2.49-3.13,4.75-6.43,6.94-9.78s4.54-7,6.75-10.54a172.16,172.16,0,0,0,12.31-22.5c.28-.65.54-1.31.8-2,.21-.26.43-.52.63-.79a22.89,22.89,0,0,0,1.35-1.92c.23-.35.46-.69.68-1a17.07,17.07,0,0,0,1.89.08,21,21,0,0,0,2.38,0C335.91,152.31,335.85,151.63,335.49,150.94Z" style="fill:#263238"></path><path d="M304.2,156.49c-2.45,1.56-4.19,2.9-8.28,6-6.39,4.86-9.46,7.73-9.67,7.85-3.3,1.94-14.25,14.93-16.56,12.84s.82-5,1.29-5.46c-.58.4-5.54,3.73-6.44.72-.64-2.13,3.48-6,3.89-6.41-.54.3-5.46,3.07-6.44.08-.7-2.15,3.85-6.53,4.45-7-.58.29-4.88,3.22-4.81.16.08-3.76,9.25-9.62,14.9-11.88C284.94,150.07,304.2,156.49,304.2,156.49Z" style="fill: rgb(119, 68, 66);"></path><path d="M284.54,168.84c.21,0,.18.22-.09.32a38.94,38.94,0,0,0-13.25,8.43c-.23.25-.41.17-.18-.1C275.28,172.31,282.15,169.45,284.54,168.84Z" style="fill:#263238"></path><path d="M268.77,172c6.13-4.92,9.71-6.4,17.32-8.5.1,0,.06-.21,0-.19-7.66,1.44-11.93,3.3-17.38,8.5C268.4,172,268.49,172.2,268.77,172Z" style="fill:#263238"></path><path d="M266.71,165.06c6.41-4.05,10.28-5.8,17.84-7.22.18,0,.17-.26,0-.24-7.8.83-12.64,3-17.93,7.3C266.25,165.19,266.31,165.32,266.71,165.06Z" style="fill:#263238"></path><path d="M304.48,156.08c-3.89-1.29-19.29-4.75-24.65-3.92a15.57,15.57,0,0,0-4.76,1.56,47.46,47.46,0,0,0-5,2.84c-1.69,1-3.39,2.1-5,3.28-4.7,3.5-4.93,6.83-3.13,7.35a3.12,3.12,0,0,0,2.2-.46c.24-.12.48-.26.71-.39a13.89,13.89,0,0,0-1.62,1.71c-.88,1.1-2.32,3.31-1.8,4.74,1.05,2.88,6.11-.09,6.11-.09-2.36,2.49-3.88,5.13-3.06,6.73,1,1.89,4.83-.46,5.8-1-.7.84-2.31,3-1.25,4.37,1.19,1.57,3.3.2,3.89-.23.76-.55,1.51-1.13,2.23-1.73a43.47,43.47,0,0,0,4.09-3.94c.06-.06,0-.17-.11-.11a87.23,87.23,0,0,1-6.84,5.44,2.76,2.76,0,0,1-1.9.69c-.94-.14-1.09-1-.89-1.84a10.54,10.54,0,0,1,2.17-3.93c.17-.19.07-.35-.13-.22-1,.63-7,4.28-6.64,1.1a7.3,7.3,0,0,1,1.55-3.11,17.8,17.8,0,0,1,2.52-3c.23-.2.19-.34-.12-.21-1.28.52-2.68,1.06-4,1.48a2.53,2.53,0,0,1-1.91.05,1.8,1.8,0,0,1-.79-1.82,7.39,7.39,0,0,1,1.95-3.44,17.24,17.24,0,0,1,2.87-3c.17-.13,0-.25-.15-.13a17.85,17.85,0,0,1-2.44,1.3,2.42,2.42,0,0,1-2.09.26c-.84-.42-.6-1.44-.31-2.06a7.89,7.89,0,0,1,1.35-2,20.48,20.48,0,0,1,3.74-3c1.46-1,3-1.91,4.46-2.83a34.5,34.5,0,0,1,7-3.31c4.34-1.24,21.81,2.4,25.89,3.21C304.55,156.37,304.63,156.13,304.48,156.08Z" style="fill:#263238"></path><path d="M249.07,225.58l44.21,11.76,22.3-7.7,1.26,3.92-1.34,2.81s1.49,3.55,1.86,4.16-1.13,4.87-1.13,4.87.65,3,.69,3.42a16.17,16.17,0,0,1-.51,2.33s-22.91,13.1-24,13.1-48.88-12.82-48.88-13.31-1.2-3.72-.93-4.21,1.52-2.51,1.59-2.7-.36-4.64-.3-5a33.46,33.46,0,0,1,2.45-3.34s-.18-3.83-.11-4.31a30.48,30.48,0,0,1,2.14-3.66s.12-1.1.18-1.28A7.41,7.41,0,0,1,249.07,225.58Z" style="fill:#2CB67D"></path><path d="M249.07,225.58l44.21,11.76,22.3-7.7,1.26,3.92-1.34,2.81s1.49,3.55,1.86,4.16-1.13,4.87-1.13,4.87.65,3,.69,3.42a16.17,16.17,0,0,1-.51,2.33s-22.91,13.1-24,13.1-48.88-12.82-48.88-13.31-1.2-3.72-.93-4.21,1.52-2.51,1.59-2.7-.36-4.64-.3-5a33.46,33.46,0,0,1,2.45-3.34s-.18-3.83-.11-4.31a30.48,30.48,0,0,1,2.14-3.66s.12-1.1.18-1.28A7.41,7.41,0,0,1,249.07,225.58Z" style="opacity:0.1"></path><g style="opacity:0.1"><polygon points="316.23 245.4 296.79 254.56 316.59 247.09 316.23 245.4"></polygon><polygon points="315.5 236.37 303.26 243.33 316.28 238.19 315.5 236.37"></polygon><polygon points="244.18 244.03 244.18 241.98 264.89 249.43 244.18 244.03"></polygon><polygon points="248.36 227.71 268.32 235.58 247.42 229.18 248.36 227.71"></polygon><polygon points="246.24 233.52 257.13 236.37 246.33 235.68 246.24 233.52"></polygon></g><polygon points="187.51 295.94 191.1 295.27 191.9 291.49 192.7 295.27 196.29 295.94 192.72 296.81 191.9 300.38 191.09 296.81 187.51 295.94" style="fill:#fff"></polygon><polygon points="240.91 259.8 244.5 259.14 245.3 255.36 246.1 259.14 249.69 259.81 246.12 260.68 245.3 264.25 244.48 260.68 240.91 259.8" style="fill:#fff"></polygon><polygon points="283.63 311.06 287.22 310.39 288.02 306.62 288.82 310.39 292.41 311.06 288.84 311.93 288.02 315.5 287.2 311.93 283.63 311.06" style="fill:#fff"></polygon><polygon points="293.01 410.69 296.6 410.02 297.4 406.24 298.2 410.02 301.79 410.69 298.22 411.56 297.4 415.13 296.58 411.56 293.01 410.69" style="fill:#fff"></polygon><polygon points="165.91 374.76 169.5 374.1 170.3 370.32 171.1 374.1 174.69 374.77 171.12 375.64 170.3 379.21 169.48 375.64 165.91 374.76" style="fill:#fff"></polygon><polygon points="179.71 379.58 181.72 379.21 182.16 377.1 182.61 379.21 184.62 379.58 182.62 380.07 182.16 382.06 181.71 380.07 179.71 379.58" style="fill:#fff"></polygon><polygon points="226.17 350.12 228.17 349.75 228.62 347.63 229.07 349.75 231.07 350.12 229.08 350.61 228.62 352.6 228.17 350.61 226.17 350.12" style="fill:#fff"></polygon><polygon points="134.21 340.12 136.22 339.75 136.67 337.64 137.11 339.75 139.12 340.12 137.12 340.61 136.67 342.61 136.21 340.61 134.21 340.12" style="fill:#fff"></polygon><polygon points="209.28 285.47 211.28 285.1 211.73 282.99 212.18 285.1 214.18 285.47 212.18 285.96 211.73 287.96 211.27 285.96 209.28 285.47" style="fill:#fff"></polygon><polygon points="278.75 391.34 280.75 390.97 281.2 388.86 281.65 390.97 283.65 391.34 281.66 391.83 281.2 393.83 280.75 391.83 278.75 391.34" style="fill:#fff"></polygon><polygon points="296.79 294.94 298.8 294.57 299.24 292.46 299.69 294.57 301.7 294.95 299.7 295.43 299.24 297.43 298.79 295.43 296.79 294.94" style="fill:#fff"></polygon><polygon points="290.43 354.18 292.43 353.81 292.88 351.7 293.32 353.81 295.33 354.18 293.33 354.67 292.88 356.67 292.42 354.67 290.43 354.18" style="fill:#fff"></polygon><polygon points="361.38 372.81 363.39 372.44 363.84 370.32 364.29 372.44 366.29 372.81 364.29 373.29 363.84 375.29 363.38 373.29 361.38 372.81" style="fill:#fff"></polygon><path d="M202.06,311.64a.58.58,0,0,0,0-1.16A.58.58,0,0,0,202.06,311.64Z" style="fill:#fff"></path><path d="M358.69,368.42a.58.58,0,0,0,0-1.16A.58.58,0,0,0,358.69,368.42Z" style="fill:#fff"></path><path d="M328.07,401.5a.58.58,0,0,0,0-1.16A.58.58,0,0,0,328.07,401.5Z" style="fill:#fff"></path><path d="M153.4,302.13a.59.59,0,0,0,0-1.17A.59.59,0,0,0,153.4,302.13Z" style="fill:#fff"></path><path d="M303.65,301a.58.58,0,0,0,0-1.16A.58.58,0,0,0,303.65,301Z" style="fill:#fff"></path><path d="M268.46,345.88a.41.41,0,0,0,0-.82A.41.41,0,0,0,268.46,345.88Z" style="fill:#fff"></path><path d="M239.45,325.92a.42.42,0,0,0,0-.83A.42.42,0,0,0,239.45,325.92Z" style="fill:#fff"></path><path d="M264.49,269.6a.41.41,0,0,0,0-.82A.41.41,0,0,0,264.49,269.6Z" style="fill:#fff"></path><path d="M180.57,365.66a1.12,1.12,0,0,0,0-2.23A1.12,1.12,0,0,0,180.57,365.66Z" style="fill:#fff"></path><path d="M259.23,273.38a1.11,1.11,0,0,0,0-2.22A1.11,1.11,0,0,0,259.23,273.38Z" style="fill:#fff"></path></g><g id="freepik--Lights--inject-2"><g style="opacity:0.5"><path d="M248.5,206.92s-14.46-1.45-28.07-13.28c-17.05-14.81,14.7-36.6,43.71-44.61,32.61-9,68.89-11,68.89-11S319,125.54,284.58,125.54c-23.84,0-25.83,13.39-25.83,13.39s-72.85,17-70.44,43.2C189.37,193.56,210.91,204.51,248.5,206.92Z" style="fill:#2CB67D"></path><path d="M317.31,202c7.87,2.15,36.16,10.69,36,25.31-.24,30.48-77.92,24.85-94.9,25.42-31.08,1.05-43.1,7.32-45,11.49C210.17,271.2,235.8,278,235.8,278s-45.3-2.82-45.3-14.88c0-8.63,22.87-16.79,60.81-16.79,34.69,0,76.72-7.85,78.32-24.59C330.74,210.1,317.31,202,317.31,202Z" style="fill:#2CB67D"></path><path d="M181.76,173.24s-11.72,24.19,21.49,30c0,0-25.22,1.23-29.07-9.64S181.76,173.24,181.76,173.24Z" style="fill:#2CB67D"></path><path d="M347.34,210.84s14.88,5,12.85,19.57C360.19,230.41,368.56,207.75,347.34,210.84Z" style="fill:#2CB67D"></path><path d="M242.91,138.21a2.93,2.93,0,1,1-2.93-2.93A2.93,2.93,0,0,1,242.91,138.21Z" style="fill:#2CB67D"></path><path d="M229.1,242a2.93,2.93,0,1,1-2.93-2.93A2.94,2.94,0,0,1,229.1,242Z" style="fill:#2CB67D"></path><path d="M371.63,128A2.93,2.93,0,1,1,368.7,125,2.94,2.94,0,0,1,371.63,128Z" style="fill:#2CB67D"></path><path d="M226.39,186.78a1.47,1.47,0,1,1-1.46-1.46A1.46,1.46,0,0,1,226.39,186.78Z" style="fill:#2CB67D"></path><path d="M336.48,113.71a1.47,1.47,0,1,1-1.47-1.47A1.46,1.46,0,0,1,336.48,113.71Z" style="fill:#2CB67D"></path><path d="M248.5,150.94a1.47,1.47,0,1,1-1.47-1.47A1.46,1.46,0,0,1,248.5,150.94Z" style="fill:#2CB67D"></path><path d="M327,200.56a1.47,1.47,0,1,1-1.46-1.46A1.46,1.46,0,0,1,327,200.56Z" style="fill:#2CB67D"></path><path d="M204.09,276.53a1.47,1.47,0,1,1-1.46-1.46A1.46,1.46,0,0,1,204.09,276.53Z" style="fill:#2CB67D"></path></g></g><g id="freepik--Sparkles--inject-2"><polygon points="229.7 103.35 234.22 102.52 235.23 97.76 236.24 102.52 240.75 103.36 236.25 104.45 235.23 108.95 234.2 104.45 229.7 103.35" style="fill:#2CB67D"></polygon><polygon points="145.29 275.76 149.81 274.93 150.82 270.17 151.83 274.93 156.34 275.76 151.85 276.86 150.82 281.36 149.79 276.86 145.29 275.76" style="fill:#2CB67D"></polygon><polygon points="347.62 125.53 352.13 124.7 353.14 119.94 354.15 124.7 358.67 125.54 354.17 126.64 353.14 131.13 352.12 126.64 347.62 125.53" style="fill:#2CB67D"></polygon><polygon points="342.3 297.75 346.82 296.92 347.83 292.16 348.84 296.92 353.35 297.76 348.86 298.86 347.83 303.35 346.8 298.86 342.3 297.75" style="fill:#2CB67D"></polygon><polygon points="234.33 221.74 238.84 220.91 239.85 216.14 240.86 220.91 245.38 221.74 240.88 222.84 239.85 227.34 238.82 222.84 234.33 221.74" style="fill:#2CB67D"></polygon><polygon points="165.91 258.37 168.44 257.9 169 255.24 169.57 257.9 172.09 258.37 169.58 258.98 169 261.5 168.43 258.98 165.91 258.37" style="fill:#2CB67D"></polygon><polygon points="295.79 84.25 298.32 83.78 298.88 81.12 299.44 83.78 301.97 84.25 299.46 84.86 298.88 87.38 298.31 84.86 295.79 84.25" style="fill:#2CB67D"></polygon><polygon points="212.48 215.11 215.01 214.64 215.57 211.98 216.14 214.64 218.66 215.11 216.15 215.72 215.57 218.24 215 215.72 212.48 215.11" style="fill:#2CB67D"></polygon><polygon points="238.47 86.58 241 86.11 241.56 83.45 242.13 86.11 244.65 86.58 242.14 87.19 241.56 89.71 240.99 87.19 238.47 86.58" style="fill:#2CB67D"></polygon><polygon points="320.94 271.19 323.47 270.72 324.03 268.06 324.6 270.72 327.12 271.19 324.61 271.8 324.03 274.32 323.46 271.8 320.94 271.19" style="fill:#2CB67D"></polygon><polygon points="334.12 134.89 336.64 134.43 337.21 131.76 337.77 134.43 340.3 134.89 337.78 135.51 337.21 138.02 336.63 135.51 334.12 134.89" style="fill:#2CB67D"></polygon><polygon points="339.04 226.59 341.57 226.13 342.13 223.47 342.7 226.13 345.22 226.59 342.71 227.21 342.13 229.72 341.56 227.21 339.04 226.59" style="fill:#2CB67D"></polygon><polygon points="195.94 337.64 198.47 337.17 199.03 334.51 199.6 337.17 202.12 337.64 199.61 338.25 199.03 340.77 198.46 338.25 195.94 337.64" style="fill:#2CB67D"></polygon><path d="M221.67,131.54a.73.73,0,0,0,0-1.46A.73.73,0,0,0,221.67,131.54Z" style="fill:#2CB67D"></path><path d="M386.45,286.18a.73.73,0,0,0,0-1.46A.73.73,0,0,0,386.45,286.18Z" style="fill:#2CB67D"></path><path d="M188.32,142.8a.74.74,0,0,0,0-1.47A.74.74,0,0,0,188.32,142.8Z" style="fill:#2CB67D"></path><path d="M381.59,120a.74.74,0,0,0,0-1.47A.74.74,0,0,0,381.59,120Z" style="fill:#2CB67D"></path><path d="M316.71,317a.74.74,0,0,0,0-1.47A.74.74,0,0,0,316.71,317Z" style="fill:#2CB67D"></path><path d="M311.38,216.14a.52.52,0,0,0,0-1A.52.52,0,0,0,311.38,216.14Z" style="fill:#2CB67D"></path><path d="M255.32,118.24a.52.52,0,0,0,0-1A.52.52,0,0,0,255.32,118.24Z" style="fill:#2CB67D"></path><path d="M334.62,73.33a.52.52,0,0,0,0-1A.52.52,0,0,0,334.62,73.33Z" style="fill:#2CB67D"></path><path d="M194.78,178.56a1.4,1.4,0,0,0,0-2.8A1.4,1.4,0,0,0,194.78,178.56Z" style="fill:#2CB67D"></path><path d="M371.29,128.34a1.4,1.4,0,0,0,0-2.8A1.4,1.4,0,0,0,371.29,128.34Z" style="fill:#2CB67D"></path><path d="M314.65,325.09a1.4,1.4,0,0,0,0-2.8A1.4,1.4,0,0,0,314.65,325.09Z" style="fill:#2CB67D"></path></g></svg>