<svg xmlns="http://www.w3.org/2000/svg" viewBox="0 0 500 500"><g id="freepik--background-simple--inject-2"><g><path d="M54.3677,160.5464c-3.0134,4.9887-5.7501,10.1875-8.1689,15.6203-19.4685,43.7251-15.4717,85.2516-4.2539,129.1632,11.5859,45.3511,33.499,94.0165,71.6109,123.2198,8.9715,6.8745,19.1003,12.5292,30.2678,15.3799,42.0632,10.7372,94.284-5.6573,147.1111,3.1434,52.827,8.8007,107.0218-2.0268,137.7756-51.4387,13.01471-20.9107,21.1422-43.076,26.0106-66.7816,5.9942-29.188,19.3172-58.6936,19.9578-89.0843,.6731-31.9421-11.9594-67.2972-32.7386-91.2131-23.7076-27.2861-61.9764-30.3509-94.079-43.7423-25.3079-10.5571-47.257-27.6063-72.8479-37.5309-39.2061-15.2051-89.5497-15.7814-126.3411,8.3258-35.689,23.3846-72.3496,48.5927-94.3044,84.9385Z" style="fill:#2CB67D;"></path><path d="M54.3677,160.5464c-3.0134,4.9887-5.7501,10.1875-8.1689,15.6203-19.4685,43.7251-15.4717,85.2516-4.2539,129.1632,11.5859,45.3511,33.499,94.0165,71.6109,123.2198,8.9715,6.8745,19.1003,12.5292,30.2678,15.3799,42.0632,10.7372,94.284-5.6573,147.1111,3.1434,52.827,8.8007,107.0218-2.0268,137.7756-51.4387,13.01471-20.9107,21.1422-43.076,26.0106-66.7816,5.9942-29.188,19.3172-58.6936,19.9578-89.0843,.6731-31.9421-11.9594-67.2972-32.7386-91.2131-23.7076-27.2861-61.9764-30.3509-94.079-43.7423-25.3079-10.5571-47.257-27.6063-72.8479-37.5309-39.2061-15.2051-89.5497-15.7814-126.3411,8.3258-35.689,23.3846-72.3496,48.5927-94.3044,84.9385Z" style="fill:#fff; opacity:.7;"></path></g></g><g id="freepik--Bread_2--inject-2"><g><path d="M296.77549,377.8118c-23.8958-5.2619-48.3741-5.8944-72.2529-1.1347-4.0555,.8084-8.1488,1.7777-12.1801,2.9392-28.2186,8.1304-44.09749,19.7962-49.0481,33.4597-4.9506,13.6635-.7285,37.3217,13.2444,48.7352s55.792,23.4386,97.7891,21.1738c41.9972-2.2648,70.255-28.6479,77.0724-47.138,6.8174-18.4902,2.1119-36.5766-11.0721-44.8436-7.2183-4.5263-27.0674-9.5615-43.5527-13.1916Z" style="fill:#2CB67D; stroke:#263238; stroke-miterlimit:10;"></path><path d="M352.94459,408.0655c-2.1474-7.1909-6.4555-13.199-12.6164-17.0622-7.2183-4.5262-27.0674-9.5614-43.5526-13.1915-23.8959-5.2619-48.3743-5.8943-72.253-1.1347-4.0555,.8084-8.1488,1.7777-12.1801,2.9392-28.21849,8.1303-44.0976,19.7961-49.0481,33.4597,0,0,1.2857,21.3688,20.8255,35.497,19.5399,14.1281,78.9649,19.1,119.3571,4.283,37.41179-13.7237,47.40879-32.5333,49.46759-44.7905Z" style="fill:#fff; stroke:#263238; stroke-miterlimit:10;"></path><path d="M281.29739,475.7291c.049,1.3988-2.4311,2.6209-5.53939,2.7298-3.10831,.1089-5.66781-.9367-5.71681-2.3355-.049-1.3987,2.4311-2.6209,5.5394-2.7298s5.6678,.9368,5.7168,2.3355Z" style="fill:#fff;"></path><path d="M311.87729,463.9513c.049,1.3988-2.0531,2.6077-4.6952,2.7003-2.642,.0925-4.8236-.9664-4.8726-2.3651s2.0531-2.6077,4.6952-2.7002c2.642-.0926,4.8236,.9663,4.8726,2.365Z" style="fill:#fff;"></path><path d="M237.211,471.9203c.03259,.9325-1.70471,1.7502-3.88051,1.8265-2.1758,.0762-3.9662-.618-3.9988-1.5505-.03269-.9324,1.7047-1.7502,3.8805-1.8264,2.17581-.0762,3.9661,.6179,3.99881,1.5504Z" style="fill:#fff;"></path><path d="M264.10749,467.5971c.0436,1.2433-1.9369,2.3218-4.4236,2.4089-2.4866,.0872-4.5378-.8501-4.5813-2.0935-.04359-1.2433,1.9369-2.3218,4.4236-2.4089,2.4866-.0871,4.53781,.8501,4.5813,2.0935Z" style="fill:#fff;"></path><path d="M294.69639,472.1605c.03261,.9325-1.3268,1.7369-3.0363,1.7968-1.7096,.0599-3.122-.6475-3.1546-1.58-.0327-.9324,1.3267-1.7369,3.0363-1.7968,1.7095-.0599,3.1219,.6475,3.1546,1.58Z" style="fill:#fff;"></path><path d="M327.15719,453.769c.56481,1.1085,2.8199,1.0914,5.0369-.0382,2.217-1.1297,3.5563-2.944,2.9915-4.0525s-2.8199-1.0914-5.0369,.0383c-2.217,1.1296-3.5563,2.944-2.9915,4.0524Z" style="fill:#fff;"></path><path d="M175.9419,454.6612c-.6534,1.0587,.5334,2.9763,2.6508,4.2831s4.3635,1.508,5.0169,.4493c.6534-1.0587-.5334-2.9763-2.6507-4.2831-2.1174-1.3068-4.3636-1.5079-5.017-.4493Z" style="fill:#fff;"></path><path d="M210.26589,467.5352c-.1217,.6101,.7687,1.3019,1.9887,1.5453,1.2201,.2434,2.3078-.0538,2.42941-.6639,.12169-.61-.76861-1.3018-1.98871-1.5452-1.22-.2434-2.3077,.0538-2.4294,.6638Z" style="fill:#fff;"></path><path d="M193.3022,462.7673c-.1217,.61,.7686,1.3018,1.9887,1.5452,1.22,.2434,2.3077-.0538,2.4294-.6638,.1217-.61-.7687-1.3019-1.9887-1.5453-1.2201-.2433-2.3078,.0539-2.4294,.6639Z" style="fill:#fff;"></path><path d="M286.04279,462.975c-.1217,.61,.7687,1.3018,1.9887,1.5452,1.2201,.2434,2.3078-.0538,2.42951-.6639,.12169-.61-.76871-1.3018-1.98881-1.5452-1.22-.2434-2.3077,.0538-2.4294,.6639Z" style="fill:#fff;"></path><path d="M338.62079,437.8784c-.1217,.61,.7687,1.3018,1.9887,1.5452,1.2201,.2434,2.3078-.0538,2.42951-.6639,.12159-.61-.76871-1.3018-1.98881-1.5452-1.22-.2434-2.3077,.0538-2.4294,.6639Z" style="fill:#fff;"></path></g></g><g id="freepik--Onion--inject-2"><g><path d="M310.10719,420.5029c.0633-.428,.1036-.9168,.1261-1.4403,.19471-4.522-2.0716-8.7938-5.88-11.2395-5.3962-3.4654-13.9604-8.5313-22.0274-11.4568-13.1124-4.7551-22.5574-4.6649-22.5574-4.6649,0,0-43.8163-5.2489-51.3212,.1755,0,0-2.75229,8.5276-2.2636,10.2547,.4888,1.7271,.7169,9.1242,20.4919,19.1684,19.775,10.0442,27.3852,15.639,44.8541,14.9998,17.4688-.6391,23.5826-3.3739,29.2226-6.2616,5.6399-2.8876,8.9111-6.5398,9.3549-9.5353Zm-11.2023-2.5693c-2.3387,2.3838-18.647,9.1518-18.647,9.1518-13.52589,1.3887-14.4734,1.0829-42.7911-13.2878s-18.7197-14.9347-18.7197-14.9347c13.34291-4.0632,46.9045-1.0778,46.9045-1.0778,0,0,6.7855,1.6669,18.1708,6.9109,11.3852,5.2439,17.4212,10.8538,15.0825,13.2376Z" style="fill:#fff; stroke:#263238; stroke-miterlimit:10;"></path><path d="M310.10709,420.503c.0692-.4674,.11091-1.0073,.132-1.5858,.1616-4.4326-2.0344-8.6163-5.7646-11.0162-5.3886-3.4669-14.0209-8.5872-22.1486-11.5347-2.6352-.9556-5.1125-1.708-7.4045-2.3123,4.4797,1.9252,13.093,5.7255,20.1444,9.4228,10.0105,5.2489,10.6468,8.2796,10.7996,11.5577,.1527,3.2782-13.7278,12.5209-20.025,14.5246-6.2971,2.0036-17.1103,1.7425-29.0433-1.3017-11.9329-3.0441-20.6109-8.6702-35.0426-18.9786s-12.2733-13.2442-10.3509-15.449c1.92241-2.2048,12.6176-1.5782,12.6176-1.5782l43.4886,.3134-.48879-.1766c-4.52731-.7055-7.25251-.6869-7.25251-.6869,0,0-43.8163-5.249-51.3212,.1754,0,0-2.7524,8.5276-2.2636,10.2547s.7169,9.1242,20.4919,19.1684c19.775,10.0442,27.3852,15.639,44.8541,14.9998,17.4688-.6391,23.5826-3.3739,29.2226-6.2615,5.6399-2.8877,8.9111-6.5399,9.3548-9.5353Z" style="fill:#263238; stroke:#263238; stroke-miterlimit:10;"></path><path d="M224.02119,392.2516s-3.7768,.1575-6.8731,2.4549-.3103,4.6095-.3103,4.6095" style="fill:none; stroke:#263238; stroke-miterlimit:10;"></path><path d="M298.90489,417.9336s3.99111-1.4389,4.5349-3.8536c.5439-2.4148-2.18-5.6488-6.0324-8.305" style="fill:none; stroke:#263238; stroke-miterlimit:10;"></path><line x1="210.04279" y1="398.4295" x2="207.78909" y2="405.4126" style="fill:none; stroke:#c9c9c9; stroke-miterlimit:10;"></line><line x1="213.62869" y1="403.0363" x2="211.72489" y2="408.3061" style="fill:none; stroke:#c9c9c9; stroke-miterlimit:10;"></line><line x1="225.18739" y1="411.2308" x2="222.55439" y2="416.874" style="fill:none; stroke:#c9c9c9; stroke-miterlimit:10;"></line><line x1="241.53559" y1="422.1886" x2="239.56669" y2="427.0317" style="fill:none; stroke:#c9c9c9; stroke-miterlimit:10;"></line><line x1="276.795" y1="431.1338" x2="274.75519" y2="434.9394" style="fill:none; stroke:#c9c9c9; stroke-miterlimit:10;"></line><line x1="293.89779" y1="431.5811" x2="296.21089" y2="424.4143" style="fill:none; stroke:#c9c9c9; stroke-miterlimit:10;"></line><line x1="301.72479" y1="419.9038" x2="298.88959" y2="429.9457" style="fill:none; stroke:#c9c9c9; stroke-miterlimit:10;"></line><line x1="307.30389" y1="415.8201" x2="303.86379" y2="426.4785" style="fill:none; stroke:#c9c9c9; stroke-miterlimit:10;"></line></g><g><path d="M347.735,370.069c.06329-.428,.10359-.9169,.12609-1.4404,.1947-4.522-2.0716-8.7938-5.88-11.2395-5.3962-3.4653-13.9604-8.5312-22.0274-11.4567-13.1123-4.7551-22.5574-4.6649-22.5574-4.6649,0,0-43.81629-5.249-51.3212,.1754,0,0-2.7523,8.5276-2.2636,10.2547,.4889,1.7271,.7169,9.1243,20.4919,19.1684,19.775,10.0442,27.3852,15.6391,44.8541,14.9999,17.4689-.6392,23.5826-3.3739,29.2226-6.2616,5.64-2.8877,8.9111-6.5399,9.35491-9.5353Zm-11.20231-2.5694c-2.33869,2.3839-18.647,9.1518-18.647,9.1518-13.5259,1.3887-14.4734,1.0829-42.7911-13.2878-28.3177-14.3706-18.7197-14.9347-18.7197-14.9347,13.3429-4.0632,46.9045-1.0778,46.9045-1.0778,0,0,6.7855,1.667,18.1708,6.9109,11.3852,5.2439,17.4212,10.8538,15.0825,13.2376Z" style="fill:#fff; stroke:#263238; stroke-miterlimit:10;"></path><path d="M347.73489,370.069c.0692-.4674,.1109-1.0073,.132-1.5858,.1616-4.4325-2.0344-8.6162-5.7645-11.0162-5.3886-3.4669-14.021-8.5871-22.1487-11.5346-2.6352-.9557-5.1125-1.7081-7.4045-2.3124,4.4797,1.9253,13.093,5.7255,20.1444,9.4228,10.0105,5.249,10.6468,8.2796,10.7996,11.5578,.1527,3.2782-13.7278,12.5209-20.025,14.5245-6.2971,2.0037-17.1103,1.7425-29.0433-1.3016-11.93289-3.0442-20.61089-8.6703-35.0426-18.9786-14.4317-10.3085-12.27329-13.2443-10.3509-15.4491,1.9224-2.2048,12.61761-1.5781,12.61761-1.5781l43.48859,.3133-.4888-.1766c-4.5273-.7055-7.2525-.6869-7.2525-.6869,0,0-43.81629-5.249-51.3212,.1754,0,0-2.7524,8.5277-2.2636,10.2547,.4889,1.7271,.7169,9.1243,20.4919,19.1684,19.775,10.0442,27.3852,15.6391,44.8541,14.9999,17.4689-.6392,23.5826-3.3739,29.2226-6.2616,5.64-2.8877,8.9111-6.5399,9.3548-9.5353Z" style="fill:#263238; stroke:#263238; stroke-miterlimit:10;"></path><path d="M254.46559,348.882s-2.786-2.3121,.3103-4.6095,6.87311-2.4548,6.87311-2.4548" style="fill:none; stroke:#263238; stroke-miterlimit:10;"></path><path d="M336.53269,367.4997s3.9911-1.4389,4.5349-3.8537c.5439-2.4148-2.18-5.6487-6.0324-8.305" style="fill:none; stroke:#263238; stroke-miterlimit:10;"></path><line x1="247.67069" y1="347.9956" x2="245.41689" y2="354.9786" style="fill:none; stroke:#c9c9c9; stroke-miterlimit:10;"></line><line x1="251.25649" y1="352.6023" x2="249.35269" y2="357.8722" style="fill:none; stroke:#c9c9c9; stroke-miterlimit:10;"></line><line x1="262.81519" y1="360.7969" x2="260.18219" y2="366.4401" style="fill:none; stroke:#c9c9c9; stroke-miterlimit:10;"></line><line x1="279.16339" y1="371.7547" x2="277.19449" y2="376.5977" style="fill:none; stroke:#c9c9c9; stroke-miterlimit:10;"></line><line x1="314.42279" y1="380.6999" x2="312.383" y2="384.5054" style="fill:none; stroke:#c9c9c9; stroke-miterlimit:10;"></line><line x1="333.83869" y1="373.9803" x2="331.52559" y2="381.1471" style="fill:none; stroke:#c9c9c9; stroke-miterlimit:10;"></line><line x1="339.35259" y1="369.4698" x2="336.51739" y2="379.5117" style="fill:none; stroke:#c9c9c9; stroke-miterlimit:10;"></line><line x1="344.93169" y1="365.3862" x2="341.49169" y2="376.0445" style="fill:none; stroke:#c9c9c9; stroke-miterlimit:10;"></line></g><g><path d="M259.69449,382.5288c-.0712-.4267-.183-.9044-.3223-1.4095-1.2037-4.3631-4.6725-7.7324-9.0481-8.8901-6.1997-1.6404-15.9059-3.8309-24.4815-4.1372-13.9391-.4978-22.8998,2.4891-22.8998,2.4891,0,0-43.3105,8.463-48.7866,15.9303,0,0,0,8.9608,.9957,10.4543,.9956,1.4934,3.4847,8.463,25.3889,11.9477,21.9042,3.4847,30.8649,6.4717,47.293,.4978,16.42821-5.9738,21.4064-10.4542,25.8868-14.9347,4.48041-4.4804,6.4717-8.9607,5.9739-11.9477Zm-11.4499,.9957c-1.4935,2.9869-14.9347,14.4368-14.9347,14.4368-12.4455,5.4761-13.4412,5.4761-44.804,.4978-31.3627-4.9782-22.402-8.463-22.402-8.463,11.45-7.9651,44.3062-15.4324,44.3062-15.4324,0,0,6.9695-.4978,19.415,.9956,12.4456,1.4935,19.91291,4.9783,18.4195,7.9652Z" style="fill:#fff; stroke:#263238; stroke-miterlimit:10;"></path><path d="M259.69439,382.5289c-.0776-.4661-.2038-.9927-.36139-1.5497-1.20771-4.2679-4.58251-7.5749-8.86951-8.7131-6.193-1.6442-15.9808-3.8655-24.6209-4.1741-2.8013-.1001-5.39-.0552-7.7568,.0737,4.8544,.4563,14.2187,1.4272,22.0648,2.78,11.1388,1.9205,12.6753,4.6092,13.8275,7.6819,1.1523,3.0728-9.2183,16.1322-14.5957,19.9732-5.3773,3.8409-15.7481,6.9137-28.0392,7.6819s-22.2777-1.9205-39.178-7.2978c-16.9003-5.3774-15.748-8.8343-14.5957-11.523,1.1522-2.6887,11.5229-5.3774,11.5229-5.3774l41.4826-13.0593-.51931-.0179c-4.5252,.7191-7.1129,1.5739-7.1129,1.5739,0,0-43.3105,8.4629-48.7866,15.9302,0,0,0,8.9608,.9957,10.4543,.9956,1.4934,3.4847,8.463,25.3889,11.9477,21.9041,3.4847,30.8649,6.4717,47.293,.4978,16.42821-5.9738,21.4064-10.4542,25.8868-14.9346,4.48041-4.4805,6.4717-8.9608,5.9738-11.9477Z" style="fill:#263238; stroke:#263238; stroke-miterlimit:10;"></path><path d="M164.4261,391.0138s-3.3615-1.3446-1.1205-4.482,5.7869-4.4473,5.7869-4.4473" style="fill:none; stroke:#263238; stroke-miterlimit:10;"></path><path d="M248.24459,383.5245s3.3561-2.5952,3.132-5.0603-3.80959-4.7061-8.29159-6.0507" style="fill:none; stroke:#263238; stroke-miterlimit:10;"></path><line x1="157.6873" y1="392.2572" x2="157.6873" y2="399.595" style="fill:none; stroke:#c9c9c9; stroke-miterlimit:10;"></line><line x1="162.5148" y1="395.5399" x2="162.3217" y2="401.1398" style="fill:none; stroke:#c9c9c9; stroke-miterlimit:10;"></line><line x1="176.0317" y1="399.7881" x2="175.2593" y2="405.9672" style="fill:none; stroke:#c9c9c9; stroke-miterlimit:10;"></line><line x1="194.9554" y1="405.1948" x2="194.5692" y2="410.4085" style="fill:none; stroke:#c9c9c9; stroke-miterlimit:10;"></line><line x1="231.25789" y1="402.8777" x2="230.48549" y2="407.1258" style="fill:none; stroke:#c9c9c9; stroke-miterlimit:10;"></line><line x1="247.67129" y1="390.5193" x2="247.67129" y2="398.0502" style="fill:none; stroke:#c9c9c9; stroke-miterlimit:10;"></line><line x1="251.53329" y1="384.5333" x2="251.91949" y2="394.9606" style="fill:none; stroke:#c9c9c9; stroke-miterlimit:10;"></line><line x1="255.58839" y1="378.9334" x2="255.58839" y2="390.1331" style="fill:none; stroke:#c9c9c9; stroke-miterlimit:10;"></line></g></g><g id="freepik--Meat--inject-2"><g><path d="M320.18439,259.0104c-45.722-9.8705-92.3301,6.0055-129.1449,22.622-45.2324,20.4158-39.67,41.3347-33.0165,65.4795,4.8439,17.5717,28.3839,25.6079,45.17859,28.7362,31.6882,5.9025,70.3599,.6456,100.266-11.1627,14.48641-5.72,24.4108-11.6916,37.0297-20.7903,11.1228-8.0201,20.1113-19.6101,21.3388-32.5398,.9945-10.4757,.481-27.031-6.11309-35.383-8.52891-10.8024-22.58291-14.165-35.53861-16.9619Z" style="fill:#263238; stroke:#263238; stroke-miterlimit:10;"></path><g><path d="M349.47069,273.1591c.9219-.788,1.08231-1.8285-.5913-3.433-2.4725-2.3703-18.5476-.9604-21.684,1.267-2.8919,2.0538,.2662,1.8128,1.1539,3.6631,1.4856,3.0965,.3204,6.0044,.4591,6.4628-2.0105,.177-3.04339,1.9986-1.8791,3.8908,1.111,1.8054,2.7331,.6789,4.8906,.4929,.2407,1.5942-.0591,3.0954,.0482,4.6538,6.0076-.2521,5.0024-4.5335,6.48291-8.0821,.14649,1.6839,1.79939,2.5076,1.52019,3.5883-1.1341,4.3903-3.985,3.7856-7.8335,6.5678,.2071,2.8346,.7532,5.7973-1.67369,7.5465-.09121,.8084,.31979,.8842-.15051,1.6446-3.0383,.6759-6.16649,1.1153-9.2349,1.694,.3347-.7419,.5118-1.7188,.5259-3.0338-1.0073-.1865-1.4793-.9986-2.1639-1.2865,1.3265-1.0185,6.8811-3.7385,7.1317-5.2345,.7005-4.1808-7.7224-2.4579-9.4395-1.6254-3.5067,1.7001-2.4925,4.8856-6.5289,3.8873-.8826-.2183-1.7081-1.8762-2.4948-1.9946-2.1363-.3214-5.2817,2.6622-6.8424,4.1003l-7.7018,1.7324c-2.737,.8334-4.5821,5.6703-.3477,5.3309,1.1005,3.0518,4.73881,1.1298,7.1155,1.5902-3.5311,10.8337,9.2357,3.1282,6.1554-1.8934,2.6598-1.248,5.1967,.9966,8.0868,.8506,1.6828-.085,3.04511-.1834,4.112-.4901,.4697,2.3739,1.1039,4.472-.5787,6.3946-4.8189,5.506-16.95519,.4055-23.2388,2.3396-.9501,3.0971-3.7663,.1061-5.5818,2.1254-2.325,2.586,2.0171,6.4209-3.6493,8.0119,4.3775,13.1368-13.1919,6.3208-17.80029,1.4382-1.93861-2.0538-1.86151-6.3749-5.93991-5.3832-2.1796,.5299-2.9635,2.4182-2.83209,4.6625-3.807-2.6416-7.35241-3.329-11.30321-.2755,1.3509,5.6328-5.2189,8.8956-9.2019,5.7117-2.2002,7.4446-8.75389,1.5694-10.2075-2.686-.68739-2.0123-.1825-7.4421-1.6141-8.8191-6.004-5.7749-11.7967,4.3489-10.41229,9.2684-3.411,.4839-10.41791,1.9783-13.80221,.0021-.7319-.4274-.3153-2.585-1.3951-3.2417-.7855-.4778-1.6538-1.4611-2.5443-1.7886-2.7666-1.0175-2.826,1.2474-4.56539,.9822-4.4325-.6759-7.4889-5.0397-12.3234-4.4164-5.0346,.6491-1.9671,2.4232-6.2039,5.3232-3.2227,2.2057-5.0392,.5434-7.376-1.4097-.8673-.725-.123-2.4817-.932-3.0817-.834-.6187-3.9015-1.064-3.6567-.8432-.5795-.5227-1.2176-.9155-1.7699-1.3552,.6553-.8111,.8876-2.139,1.4459-2.8395,1.8469-2.3172,3.4316-2.2915,6.4459-3.2741,3.6377-1.1859,4.0386-1.7284,5.3514-5.4349,.5835-1.6472,3.4081-3.2111-5.283-5.7791-1.439,1.8237-3.2855,3.6527-4.7385,5.2206-.5494,.5928,.0228,1.2236-1.2801,2.1314-.8349,.5817-2.1343,.1656-3.0073,.6106-2.5522,1.3011-6.1214,7.5576-2.0695,9.5558l-1.7105,7.9013c1.6914,9.5333,3.4636,24.5254,5.3463,26.2802,2.0143,1.8774,.4752,3.1354,8.0295,9.413,17.5046,14.5461,45.2166,14.5842,53.6562,14.9171,4.8065,.1895,8.9748,.8132,13.7037-.0187,14.3266-2.5204,37.3377-4.6738,51.3467-8.6282,15.6564-4.4194,26.857-11.615,41.6249-18.4027,23.52231-10.8117,33.6991-33.3901,29.4158-58.2163-.9992-5.7914-3.1742-16.9494-10.4648-18.2859Z" style="fill:#fff; opacity:.3;"></path><path d="M174.3009,313.8735l-2.4504,2.0242c-.7472,.0035-1.5862,.2501-2.2909,.4568,.062,.504,.0937,.9499,.2776,1.4313,1.7452,.0673,6.9045,.301,7.8775-1.4499,1.1722-2.1093-1.5441-2.8474-3.4138-2.4624Z" style="fill:#fff; opacity:.3;"></path><path d="M259.58869,316.3964c1.5859,.8549,3.4142,1.6116,4.74231,2.3069,2.92809,1.5329,3.51569,2.064,7.32569,1.0726-.3112-.7991-.0343-2.1887-.37769-3.0142,8.01649-3.4307,3.63929-8.0009-2.96671-7.5488l-8.8672,1.934c-3.9244,1.3854-3.0273,3.54,.1436,5.2495Z" style="fill:#fff; opacity:.3;"></path><path d="M199.38139,312.7177c.1181,2.0423,1.3294,2.8528,2.8539,2.8245l-.7659,.4328c-4.463-.3574-1.8787,2.9322,.2984,3.9883,1.0937,.5305,2.118-.1199,3.32421,.5988,.41009,.2443,.252,2.079,.90009,2.632,4.9488,4.2228,3.8242-1.4563,3.6941-3.6616-.208-3.529,.1622-3.3054,4.4122-4.2023-1.121-4.5712-3.8503-2.8829-6.8042-2.3448,1.2017-1.2975,1.959-2.9613,1.65581-4.6922-.99561-5.686-8.31111-3.2715-16.1379,1.578-1.5193,.4086-3.2022,.4575-4.6989,.4626,2.4264,4.0421,7.3189,2.0256,11.2682,2.3839Z" style="fill:#fff; opacity:.3;"></path></g><path d="M182.6142,351.0743c.6406,3.8771,3.122,1.1114,5.2996,1.8544,3.4274,1.1693,2.4453,4.5342,5.3267,6.031,6.2225,3.2324,5.4128-6.1746,4.4494-9.4864,2.7033-.9171,2.3455-5.4195-.2723-6.5807-1.6882-.7488-2.6822,1.5471-3.9734,1.2347-1.5912-.3849-1.6366-1.1618-2.6357-1.6487-1.7408-.8483-4.1654-4.9457-6.5191-.9414-1.7366,2.9543,3.5779,6.4981-2.5137,7.3666" style="opacity:.21;"></path><path d="M223.59329,341.6699c-4.2016,1.4193-6.8191-1.4133-11.1017-.4644-1.7467,.387-9.5915,4.5474-9.1751,6.6492,.7907,3.9908,5.6237,.2033,7.8272,2.046,1.97231,1.6493,.2041,7.5923,5.1639,6.0238,5.8665-1.8553-1.8629-10.6423,7.1502-10.9985,3.1747-.1255,4.5336,2.3914,7.4465,1.0703,2.202-.9986,4.908-5.9912,2.1916-7.7288-1.715-1.097-7.9991,1.9727-9.5026,3.4024Z" style="opacity:.21;"></path><path d="M237.91179,352.1599c-7.3341,2.0227-4.8331,5.7899-3.6512,10.8184,.7902,3.3615-2.5095,1.8195,2.321,3.9951,3.3301,1.4998,8.2792,2.0854,10.5481-.5263,2.0708-2.3837-1.0575-4.9919,5.1289-5.5737,2.5518-.24,4.9148,1.4014,7.5582,.574,4.2541-1.3315,8.22921-9.6916,4.3705-13.4357-2.0527-1.9918-8.45329-1.3988-11.01429-1.7005,1.72509-7.159-4.42851-8.968-10.76671-6.9853-9.4491,2.9559,1.6215,6.1058-4.4945,12.834Z" style="opacity:.21;"></path><path d="M281.92659,336.21c-6.0714,1.6523-13.3225-1.5377-12.8445,7.4965,.2091,3.9532,1.0235,7.3734,3.874,10.1956,4.2908-.4232,8.42491-3.151,11.3475-1.3268,.5706,.3562,.11441,2.3351,.8929,2.981,1.5067,1.2503,5.8823,1.1582,7.2604-.2826,3.2242-3.3709-2.09189-7.9679-.1744-10.5729,2.47151-3.3576,7.6411,.2233,9.1981-4.0203,1.0942-2.9823-.9897-7.3711-3.6168-8.8559-1.2105-.6841-6.53879-2.4101-7.5946-2.1925-4.8685,1.0038-1.4516,3.6008-2.8028,5.6286-1.2991,1.9497-4.2788,1.2301-5.5398,.9493Z" style="opacity:.21;"></path><path d="M273.59739,360.3431c-1.8692,.047-3.8635,.6029-4.7685,2.2026,1.9333,2.4558,5.2187,3.5515,8.2979,2.7475,.7048-3.8015,3.5118-9.9762-2.8027-8.7807" style="opacity:.21;"></path><path d="M308.587,316.3155c-4.43921-.4175-11.05481-3.1014-7.18171,4.124,.5784,1.0789,2.37771,1.0416,2.8345,2.5561,.3631,1.204-1.9141,1.825-1.4029,3.1136,1.2914,3.2555,5.1668,3.7096,8.7406,2.6297,.2978-1.5536-.75049-3.6824-.2547-5.0445,.4835-1.328,2.7745-1.6449,3.2576-3.244,.93261-3.0867-1.2011-4.558-4.1947-4.446" style="opacity:.21;"></path><path d="M325.36059,335.643c-6.2392,1.2873-15.56159-1.1652-8.5028,6.6088-1.4202,1.1775-3.3285,2.9492-2.469,5.1159,1.9919,5.0212,7.01521-1.0464,9.2239-2.0885,3.0771-1.4518,6.4144,.0386,9.8877-1.4046,7.28361-3.0263,4.655-5.1504,5.1389-10.3189,.4651-4.9668,3.3679-5.1856-1.3148-10.2255-2.3583-2.5382-5.48349-5.3538-9.0877-2.5044-7.3131,5.7814,8.7728,7.4644-1.0169,12.1801" style="opacity:.21;"></path><path d="M343.06419,298.7737c-2.7181-.8193-8.3685,1.7993-6.81019,5.7284,3.751-.5833,5.61,4.5253,2.56689,6.7738-2.2923,1.6938-3.8652-1.4887-5.8464-.9949-1.9253,.4797-2.9829,2.1261-1.4891,4.2134,2.3967,3.3489,10.247-.2228,13.8908,.182,1.0263,3.3923-1.52219,10.8554,3.7134,11.3426,6.8313,.6357,4.0871-13.6326,3.6413-17.2806,2.9786,.1053,3.6293-2.8055,3.7813-5.2414,.2252-3.6095-1.7077-3.7917-2.6768-6.5821-1.0093-2.9059,1.6995-4.5627-2.09939-5.6655-4.61171-1.3387-5.92831,5.2614-8.67181,7.5243Z" style="opacity:.21;"></path><path d="M173.8566,329.897c-2.0297-.4083-8.6035-5.3331-9.1006,.5195-.2479,2.9182,10.6165,6.9117,4.3595,9.1573-.5389,4.5909,3.893,3.2925,5.6199,5.8452,4.2896-.6739,6.8519-6.233,5.6707-10.1148,4.8379,1.5404,14.7456,8.4291,11.7538-2.6648-2.4558-9.1064-6.9364-3.4456-18.3033-2.7424Z" style="opacity:.21;"></path><path d="M173.016,351.8084c-4.554-3.5554-5.6056,1.1708-4.6419,4.887,5.3166,.5225,7.4973,7.2286,13.6803,4.5941-.0667-5.2316-5.0478-5.5217-6.6346-8.9707" style="opacity:.21;"></path><path d="M206.08139,360.908c-2.7048,.2547-6.5121,.6124-5.3825,4.0921-2.755,1.6299-5.1695,.5466-8.009,1.0715,1.4731,5.7863,14.5722,4.1394,18.9854,4.7278,4.258,.5678,11.127,6.9657,15.7958,4.0049,5.2562-3.3334-3.1039-7.788-3.24309-10.5536-.12721-2.5269,4.75609-4.3434,1.37939-7.6558-2.4199-2.3738-3.1491-.3535-4.74639,1.3963-2.08731,2.2864-2.375,6.3117-7.58941,4.9254-2.9189-.776-3.6251-3.4496-4.2712-6.1468-.7765,.0508-1.9096,.0676-2.919,4.1382Z" style="opacity:.21;"></path><path d="M264.96129,334.5137c-.2712-5.9468-14.8935,4.8529-4.89929,7.2148,4.58229,1.0829,11.03849-6.8249,7.89119-8.6586" style="opacity:.21;"></path><path d="M307.20939,348.5082c-2.1852,3.415-7.3595,2.7152-10.3121,5.3634-.8206,.736,.537,2.0057-.2558,2.8691-1.40149,1.5266-5.2056,1.9087-6.83049,3.0983,7.58209,2.5967,12.07209-1.839,17.84889-6.1876,3.3188-2.4982,4.6977-4.4106-.4505-5.1432Z" style="opacity:.21;"></path><path d="M210.857,332.2954c-4.82141,3.0827-13.3959,2.0844-19.155,3.3852-.6807,8.9935,22.81319,5.2615,26.315-1.4044-2.02571-.9371-4.65821-.8537-7.16-1.9808Z" style="opacity:.21;"></path></g></g><g id="freepik--Cheese--inject-2"><path d="M180.4485,244.6754s-17.4836,14.0041-24.0785,19.3999c-6.5949,5.3958-17.9861,29.3772-15.5879,32.9745,2.3981,3.5972,18.1122-14.2522,45.0737-15.7556,26.9616-1.5035,72.4353,12.1583,86.8241,25.3481,14.3889,13.1898,19.8969,41.146,29.7332,37.36,9.8362-3.786,14.03291-41.5567,30.81991-54.147,16.787-12.5902,28.77769-18.5856,36.57169-20.3842s13.1898,3.5972,14.3889,0c1.199-3.5972-13.07-16.0348-34.7731-29.3772-21.7031-13.3425-79.1063-25.7764-97.1086-24.8789-18.0023,.8974-41.7896,16.0558-71.8634,29.4604Z" style="fill:#fff; stroke:#263238; stroke-miterlimit:10;"></path></g><g id="freepik--Lettuce--inject-2"><g><path d="M240.76819,164.182s-24.491-5.0553-25.9655,.989-.518,11.2913-6.6526,14.6056c-6.1346,3.3144-11.7114-.5524-17.846,4.4192-6.1346,4.9715-13.3845,12.705-15.6152,14.3622-2.2308,1.6572-9.4807,.5524-10.5961,4.4191-1.1154,3.8668,1.6731,6.0764-.5577,9.9431-2.2307,3.8668-5.5769,3.8668-4.4615,7.7335,1.1154,3.8668,12.8268,1.6572,14.4999,4.4191,1.673,2.762-4.4615,4.4192-4.4615,12.7051s11.1537-3.3144,17.2883,3.3143c6.1346,6.6288-1.1154,9.9431,5.5769,17.6766,6.6922,7.7335,10.596,.5524,15.6152,2.2096s8.923,13.8098,18.4037,11.6002c9.4807-2.2095,9.4807-9.3906,15.6152-8.8383,6.1346,.5524,7.80771,10.4955,20.0768,9.9431,12.2691-.5524,8.3653-10.4954,15.6152-13.8098,7.25-3.3144,12.8268,1.1048,15.0576-4.9715,2.2307-6.0764-.5577-11.0479,7.2499-12.1527,7.8077-1.1048,5.5769,7.1811,13.94221,12.1527,8.36529,4.9715,13.38449-1.6572,21.19209-9.3907,7.8077-7.7335,11.1538-3.8668,18.4037-3.3144,7.25,.5524,6.6923-1.6572,7.8076-6.6287,1.1154-4.9715,6.13461-2.762,9.4807-5.5239,3.3461-2.762,3.9038-6.0763,0-12.705-3.9038-6.6288,13.9422-1.6572,17.2883-13.2575,3.3462-11.6002-11.7807-27.3584-11.7807-27.3584,0,0,1.7595-6.3733-4.5268-13.3991-6.2864-7.0258-8.5741,.9345-16.7677-2.9069s-5.8293-3.4977-14.2614-7.5363-16.934-7.8999-26.2781-1.829-17.53069,4.8859-33.4612,1.1048c-15.9306-3.7811-29.8502-8.5529-32.7711-1.2383s-3.2506,11.2477-7.1102,13.2633Z" style="fill:#2CB67D; stroke:#263238; stroke-miterlimit:10;"></path><path d="M207.21709,241.8283s7.755-10.9767,12.55391-12.9253" style="fill:#2CB67D; stroke:#263238; stroke-miterlimit:10;"></path><path d="M381.60819,197.9424c-.5081-1.3011-1.4645-2.4766-2.5545-3.3762-1.786-1.474-3.9399-2.4262-5.8469-3.7396-3.9559-2.7245-6.767-7.0591-7.6412-11.7821-3.0677-.5289-5.5525,2.8137-5.8099,5.9161-.2573,3.1023,.8548,6.1608,.9259,9.273,.1188,5.1946-2.6552,10.0216-5.8971,14.0821-3.21349,4.0248-7.1323,7.71-11.9919,9.4161-9.5194,3.3422-19.7479-1.5531-29.7783-2.64-11.7371-1.2718-23.4097,2.7788-34.0421,7.9099-7.0883,3.4207-13.9226,7.3443-21.04419,10.6979-1.77441,.8355-3.565,1.6374-5.379,2.3835-1.59481,.656-3.972,1.0424-5.36681,2.01-2.4715,1.7146-4.146,6.8543-4.2838,9.7468-.1678,3.5219,2.0132,7.4067,5.5019,7.9176,2.8786,.4216,5.5203-1.4457,8.0152-2.9422,2.495-1.4964,5.7928-2.6642,8.17451-.9935,2.00769,1.4084,2.69639,4.4637,5.03189,5.2119,2.1214,.6796,4.2476-.9941,5.6583-2.7179,1.41081-1.7239,2.8121-3.7711,4.994-4.2197,1.8303-.3764,3.801,.5029,5.5662-.1101,1.96861-.6835,2.9067-2.9774,3.0014-5.0591,.0948-2.0816-.40679-4.1652-.2177-6.2405,.2961-3.2496,2.4113-6.273,5.3626-7.665,2.9512-1.392,6.6296-1.1013,9.3255,.7371,3.234,2.2052,4.7451,6.1076,6.5603,9.5756,1.8151,3.468,4.6356,7.0185,8.5414,7.2759,3.497,.2306,6.5495-2.2841,8.87811-4.9033,2.32859-2.6193,4.51139-5.6181,7.756-6.9428,4.65319-1.8999,11.07679-.2358,14.05759-4.2825,1.2855-1.7453,1.4312-4.0426,1.8408-6.1712,.40961-2.1285,1.3579-4.4484,3.387-5.2108,3.0447-1.1439,7.0968,1.7452,9.4278-.523,1.9665-1.9136,.3351-5.2504,.8719-7.9412,.7336-3.6767,5.1163-5.1174,8.7757-5.9329,3.6593-.8155,8.0331-2.4395,8.5428-6.1538,.1227-.8938-.019-1.7755-.3434-2.6061Z" style="fill:#2CB67D; stroke:#263238; stroke-miterlimit:10;"></path><path d="M220.59439,170.7189c-5.8741,4.2459-11.4145,9.0167-17.9687,12.0712-6.9911,3.2583-14.3076,3.8283-21.7566,5.2429-6.8451,1.3-1.4288,12.3354,1.0806,11.1814-2.891,1.3294-5.7653,3.0661-7.3984,5.797-1.6332,2.731-1.6091,6.6684,.7994,8.7479,3.6992,3.194,9.3098,.1523,13.1499-2.8708,1.6545,2.6298-2.9072,5.1971-3.0695,8.2998-.1126,2.1533,2.035,3.8172,4.1531,4.2205,2.1181,.4034,4.3023-.0356,6.4556,.0771,4.6713,.2444,9.081,3.3225,10.9211,7.6232,3.4572-4.8021,11.2173-3.473,15.8377,.2235,4.6205,3.6964,7.766,9.0884,12.73,12.3089,4.0173,2.6064,9.0709,3.5636,13.7632,2.607,3.0014-.6119,5.812-1.96,8.8074-2.6005s6.4412-.4357,8.6735,1.6618c1.27531,1.1983,2.1187,2.9671,3.7528,3.5932,2.237,.8571,4.61-.8979,6.1008-2.7731,1.4909-1.8752,2.855-4.1363,5.1464-4.8351,2.4265-.7402,5.2068,.5393,7.5258-.4895,2.3199-1.0292,3.1291-3.8366,4.5853-5.9152,2.5443-3.6318,7.7709-5.0895,11.8276-3.2988,5.3352,2.355,7.6115,8.9592,12.6891,11.8276,6.5522,3.7014,15.054-.3706,19.7804-6.2266,4.2987-5.326,7.7057-12.6833,14.4632-13.7703,2.053-.3303,4.3926-.0682,5.9662-1.4275,2.9529-2.5509,.2202-7.5833,1.6256-11.2235,2.0007-5.1825,10.8108-4.5937,12.9212-9.7326,1.0567-2.5733-.1883-5.6364-2.2604-7.4926-2.072-1.8561-4.805-2.7618-7.4691-3.5625,3.08841-1.4902,4.4017-5.5851,3.2411-8.812-1.1606-3.2268-4.3572-5.4601-7.7369-6.0402-3.4831-.5978-7.0381,.3465-10.57179,.2989-3.53371-.0476-7.55581-1.6032-8.51481-5.0046-.5491-1.9474-.115-4.4252-1.7179-5.6599-.6644-.5118-1.5321-.6562-2.3609-.7846-16.084-2.4905-32.1833-4.983-48.4005-6.3617-21.1488-1.7981-43.72389-1.3588-61.8074,9.7539-1.6989,1.044-3.3442,2.175-4.9641,3.3458Z" style="fill:#2CB67D; stroke:#263238; stroke-miterlimit:10;"></path><line x1="189.0715" y1="211.6428" x2="196.2007" y2="207.2255" style="fill:#2CB67D; stroke:#263238; stroke-miterlimit:10;"></line><line x1="181.5663" y1="199.6345" x2="192.5739" y2="195.6317" style="fill:#2CB67D; stroke:#263238; stroke-miterlimit:10;"></line><line x1="195.0365" y1="194.9556" x2="198.93569" y2="193.5191" style="fill:#2CB67D; stroke:#263238; stroke-miterlimit:10;"></line><line x1="223.56179" y1="198.4443" x2="212.06959" y2="208.5" style="fill:#2CB67D; stroke:#263238; stroke-miterlimit:10;"></line><path d="M375.94469,176.7235s-4.4104,.5304-9.6554-3.5906c-5.245-4.1211-9.7408-6.369-13.4872-4.4958-3.7465,1.8732-7.5625,1.9174-7.5625,1.9174" style="fill:#2CB67D; stroke:#263238; stroke-miterlimit:10;"></path><line x1="184.052" y1="235.1192" x2="198.79329" y2="226.354" style="fill:#2CB67D; stroke:#263238; stroke-miterlimit:10;"></line><path d="M284.43189,206.6045c1.6743,5.2014,3.7569,11.2861,5.1998,14.1718,2.7889,5.5777,3.9841,8.7651,3.9841,8.7651" style="fill:#2CB67D; stroke:#263238; stroke-miterlimit:10;"></path><path d="M281.66339,197.6683s.7003,2.3702,1.7245,5.6449" style="fill:#2CB67D; stroke:#263238; stroke-miterlimit:10;"></path><path d="M307.76459,226.2636c-3.9569-5.7593-10.30459-15.1956-12.9535-20.2287" style="fill:#2CB67D; stroke:#263238; stroke-miterlimit:10;"></path><path d="M311.146,231.135s-.57131-.8109-1.50791-2.1593" style="fill:#2CB67D; stroke:#263238; stroke-miterlimit:10;"></path><path d="M362.54139,205.2381s-7.1715-.3984-15.5381-5.1794c-8.3667-4.7809-18.7255-8.7651-18.7255-8.7651" style="fill:#2CB67D; stroke:#263238; stroke-miterlimit:10;"></path><path d="M336.64449,172.9666s-7.9683-3.5857-21.1159-5.5778c-13.1477-1.9921-27.0922-2.7889-27.0922-2.7889" style="fill:#2CB67D; stroke:#263238; stroke-miterlimit:10;"></path><path d="M250.98549,190.0984s-4.38249,11.554-7.9682,15.5381c-3.5858,3.9842-11.2288,2.3694-14.3429,7.1715-3.1142,4.8021,1.992,10.7572-1.1953,14.7413" style="fill:#2CB67D; stroke:#263238; stroke-miterlimit:10;"></path><path d="M266.56479,221.0917c2.6621,.9044,3.9737,8.7721,8.3256,8.4497,4.9735-.3685,7.1714-4.781,8.7651-7.5699" style="fill:#2CB67D; stroke:#263238; stroke-miterlimit:10;"></path><path d="M228.27589,220.7763s3.9842-9.1636,9.9604-5.9763c5.9762,3.1874-1.9921,8.3667,2.3905,11.9525,4.3825,3.5857,6.256-10.7217,10.7571-6.7731,4.5012,3.9487-2.3904,11.9524,2.3905,14.7413,3.4997,2.0415,6.1455-5.3102,8.7187-10.0224" style="fill:#2CB67D; stroke:#263238; stroke-miterlimit:10;"></path><path d="M186.4003,241.0922s6.8152-7.1683,10.7994-.7937c3.9841,6.3747-3.5858,15.1398,2.7889,13.1477,6.3746-1.9921,2.7889-16.7334,12.3508-11.1556s1.9921,9.9603,3.1873,13.9445c1.1952,3.9841,9.1635,0,9.1635,3.9841s3.9842,6.3746,5.9762,2.7889c1.9921-3.5857,3.5858-11.9524,8.7651-7.9683" style="fill:#2CB67D; stroke:#263238; stroke-miterlimit:10;"></path><line x1="173.6933" y1="212.0112" x2="161.7408" y2="217.5889" style="fill:#2CB67D; stroke:#263238; stroke-miterlimit:10;"></line></g></g><g id="freepik--Tomatoes--inject-2"><g><path d="M263.914,241.1839c0,12.4831-18.60521,22.6027-41.556,22.6027s-41.5559-10.1196-41.5559-22.6027c0-1.0171-.2394-7.5653,0-8.5469,2.698-11.0648,20.4753-14.0557,41.5559-14.0557,21.13429,0,38.92629,2.9499,41.556,14.0557,.226,.9545,0,7.559,0,8.5469Z" style="fill:#263238; stroke:#263238; stroke-miterlimit:10;"></path><ellipse cx="222.35802" cy="232.637" rx="41.55593" ry="22.6026" style="fill:#2CB67D; stroke:#263238; stroke-miterlimit:10;"></ellipse><ellipse cx="222.35802" cy="232.637" rx="41.55593" ry="22.6026" style="fill:#969696; opacity:.25;"></ellipse><ellipse cx="222.35802" cy="232.637" rx="41.55593" ry="22.6026" style="fill:none; stroke:#263238; stroke-miterlimit:10;"></ellipse><g><path d="M214.967,230.3334c1.53039-2.1368-.38261-2.4929-.38261-2.4929,0,0-6.1219-2.1368-9.5656-.3561-3.4435,1.7806-8.4176,4.6296-11.4786,2.4928-3.061-2.1367,2.6784-5.6979,8.8003-8.903,0,0,1.2809-.2955,2.8814-.4196-.0686-.1112-.111-.2304-.111-.3563,0-.5596,.7424-1.0134,1.6583-1.0134s1.6583,.4538,1.6583,1.0134c0,.1539-.0604,.2981-.1607,.4287,.47621,.0749,.9336,.1837,1.3435,.3472,2.6783,1.0683,8.4176,2.1367,9.9482-.3562,1.53051-2.4928-2.6784-8.5469-12.2439-5.6979-4.8821,1.454-7.9563,2.9984-8.8434,4.1646-5.0609,2.641-10.16,6.0765-12.2008,9.0119-4.2089,6.0541,7.6074,13.51,12.1988,12.4416,4.5915-1.0683,14.9673-8.1681,16.49781-10.3048Zm-2.578-11.9698c.66149,0,1.19769,.2475,1.19769,.5528s-.5362,.5528-1.19769,.5528c-.66141,0-1.19771-.2475-1.19771-.5528s.5363-.5528,1.19771-.5528Zm-14.46411,2.0269c1.0176,0,1.8426,.3712,1.8426,.8291s-.825,.8291-1.8426,.8291-1.8425-.3712-1.8425-.8291,.8249-.8291,1.8425-.8291Zm-4.32989,12.8978c-1.1703,0-2.119-.6187-2.119-1.3819s.9487-1.3819,2.119-1.3819c1.1702,0,2.1189,.6187,2.1189,1.3819s-.9487,1.3819-2.1189,1.3819Zm6.08039,0c-.5597,0-1.01339-.2062-1.01339-.4606s.45369-.4606,1.01339-.4606,1.0134,.2062,1.0134,.4606-.4537,.4606-1.0134,.4606Zm4.1457-.9212c-.814,0-1.474-.33-1.474-.7371,0-.407,.66-.737,1.474-.737,.8141,0,1.4741,.33,1.4741,.737,0,.4071-.66,.7371-1.4741,.7371Z" style="fill:#263238;"></path><path d="M233.71539,231.4017s-.297,.1211-.7932,.2742c.9977,2.4895,1.1962,5.8671-.3546,8.2727-2.2958,3.5613-13.0091,3.9174-15.6875,1.7807-2.6783-2.1368,1.5305-3.9174,5.2887-8.15,.903-1.0169,1.6371-1.6223,2.2373-1.9666-1.8477-.3763-2.9697-.5671-4.0824-.5671-1.5305,0-3.8263,2.1368-7.2698,4.6296-3.4436,2.4929-9.9481,8.9031-9.9481,8.9031,0,0,4.2088,3.9173,15.6874,5.3418s21.0441-.7122,24.8704-2.4929c3.8262-1.7806,7.2697-5.3418,7.65241-6.4102,.38259-1.0684-17.60061-9.6153-17.60061-9.6153Zm-16.1672,13.8632c-.865,0-1.56619-.4537-1.56619-1.0134s.70119-1.0134,1.56619-1.0134,1.5661,.4537,1.5661,1.0134-.7011,1.0134-1.5661,1.0134Zm7.6466,.9214c-.7124,0-1.28979-.3713-1.28979-.8292s.57739-.8292,1.28979-.8292c.7123,0,1.2897,.3713,1.2897,.8292s-.5774,.8292-1.2897,.8292Zm7.0017-.5528c-.7123,0-1.2898-.2888-1.2898-.6449,0-.3562,.5775-.6449,1.2898-.6449s1.2898,.2887,1.2898,.6449c0,.3561-.5775,.6449-1.2898,.6449Zm3.593-4.7907c-1.3738,0-2.48749-.7012-2.48749-1.5661,0-.865,1.11369-1.5662,2.48749-1.5662s2.4874,.7012,2.4874,1.5662c0,.8649-1.1136,1.5661-2.4874,1.5661Z" style="fill:#263238;"></path><path d="M251.69859,219.6496c-3.44359-1.7805-15.6874-5.6979-19.8962-5.6979s-7.2699,3.5613-4.5915,5.3418c2.6783,1.7807,1.1478-2.8489,5.3567-2.1367,3.4508,.584,8.6959,.9328,10.68641,3.5895,.01209-.401,.58279-.7244,1.28759-.7244,.71241,0,1.2898,.33,1.2898,.7371,0,.407-.57739,.737-1.2898,.737-.3897,0-.7348-.1008-.9713-.2569,.2558,.4726,.4255,1.0049,.4759,1.6157,.3826,4.6296-9.5656,3.5612-9.5656,3.5612,0,0,19.69941,12.4809,21.6126,9.988,1.9131-2.4928-.951-14.9737-4.3946-16.7544Zm-16.4619-2.5757c-.6614,0-1.19769-.3712-1.19769-.8292,0-.4579,.53629-.8291,1.19769-.8291s1.1976,.3712,1.1976,.8291c0,.458-.5362,.8292-1.1976,.8292Zm4.6985,11.7923c-.7123,0-1.2898-.33-1.2898-.737s.5775-.737,1.2898-.737,1.28981,.33,1.28981,.737-.57751,.737-1.28981,.737Zm4.88281-.9213c-1.272,0-2.30321-.4949-2.30321-1.1055,0-.6105,1.03121-1.1056,2.30321-1.1056s2.30319,.4951,2.30319,1.1056c0,.6106-1.03119,1.1055-2.30319,1.1055Zm5.067-3.3165c-.61061,0-1.10551-.4126-1.10551-.9214s.4949-.9212,1.10551-.9212,1.10559,.4124,1.10559,.9212-.495,.9214-1.10559,.9214Z" style="fill:#263238;"></path></g></g><g><path d="M343.19289,167.8873c7.4375,10.0255-1.4754,29.2379-19.9077,42.9123-18.43219,13.6743-39.4039,16.6323-46.8415,6.6069-.606-.8169-4.69969-5.9333-5.0923-6.8643-4.4258-10.4939,8.06961-23.4879,25-36.048,16.9734-12.5921,33.0201-20.8237,41.7491-13.4711,.7502,.6319,4.5037,6.0708,5.0924,6.8642Z" style="fill:#263238; stroke:#263238; stroke-miterlimit:10;"></path><ellipse cx="304.72592" cy="185.78265" rx="41.55592" ry="22.60255" transform="translate(-50.69831 218.13535) rotate(-36.57051)" style="fill:#2CB67D; stroke:#263238; stroke-miterlimit:10;"></ellipse><ellipse cx="304.72592" cy="185.78265" rx="41.55592" ry="22.60255" transform="translate(-50.69831 218.13535) rotate(-36.57051)" style="fill:#969696; opacity:.25;"></ellipse><ellipse cx="304.72592" cy="185.78265" rx="41.55592" ry="22.60255" transform="translate(-50.69831 218.13535) rotate(-36.57051)" style="fill:none; stroke:#263238; stroke-miterlimit:10;"></ellipse><g><path d="M297.41749,188.3362c-.044-2.6279-1.7926-1.7741-1.7926-1.7741,0,0-6.1898,1.9314-7.8945,5.4133-1.7047,3.4818-4.002,8.7334-7.7335,8.8412-3.7314,.1077-1.24389-6.172,1.7632-12.3936,0,0,.8527-1.0005,2.0641-2.0538-.1213-.0484-.2264-.1189-.3014-.22-.3334-.4495-.0075-1.2562,.7281-1.8019,.7355-.5457,1.60211-.6236,1.9355-.1741,.0917,.1235,.1292,.2753,.1264,.44,.4271-.2236,.85921-.4087,1.2859-.5217,2.7875-.7377,8.0334-3.2992,7.77731-6.2132-.256-2.914-7.24341-5.2684-13.22821,2.7189-3.0546,4.0766-4.6034,7.1485-4.621,8.6136-2.491,5.1364-4.5393,10.9337-4.4293,14.5071,.2268,7.37,14.159,6.3176,17.21,2.724,3.051-3.5937,7.1539-15.4777,7.11-18.1057Zm-9.2022-8.0772c.5312-.3941,1.1093-.5148,1.2912-.2696s-.1013,.7634-.63249,1.1575c-.53121,.3941-1.10931,.5149-1.29121,.2697s.1013-.7635,.6325-1.1576Zm-10.4088,10.2457c.8173-.6063,1.701-.7997,1.9738-.4319s-.1685,1.1574-.9858,1.7637-1.701,.7997-1.9738,.4319c-.2728-.3677,.1685-1.1574,.9858-1.7637Zm4.2072,12.9385c-.9399,.6972-2.0704,.7655-2.5251,.1526-.4548-.613-.0615-1.6751,.87841-2.3724,.93979-.6972,2.07039-.7655,2.52509-.1526,.4547,.613,.0614,1.6751-.8784,2.3724Zm4.88331-3.6228c-.44951,.3334-.93671,.4382-1.08831,.2338-.1516-.2043,.0899-.6402,.5394-.9737s.9368-.4382,1.0884-.2339c.15151,.2044-.09,.6403-.53949,.9738Zm2.78069-3.21c-.6538,.485-1.3805,.6132-1.623,.2863s.0909-.9851,.7447-1.4701c.6539-.4851,1.3804-.6133,1.6229-.2864,.2426,.3269-.0908,.9851-.7446,1.4702Z" style="fill:#263238;"></path><path d="M313.11129,178.0237s-.1664,.2742-.4737,.6928c2.2846,1.4049,4.45641,3.9992,4.6442,6.8553,.2781,4.228-8.1139,10.8972-11.5381,10.7769-3.4241-.1203-1.1048-4.058-.6083-9.6966,.1193-1.3546,.3482-2.2782,.6251-2.9123-1.7082,.7986-2.723,1.3139-3.6166,1.9768-1.2292,.9119-1.7998,3.9959-3.0802,8.0496-1.2803,4.0538-2.685,13.0775-2.685,13.0775,0,0,5.7142,.6384,15.7817-5.0566,10.0675-5.6951,16.4767-13.1104,18.4887-16.8202s2.6558-8.6216,2.3265-9.7076c-.3292-1.086-19.8643,2.7644-19.8643,2.7644Zm-4.7244,20.7665c-.6947,.5154-1.5282,.5688-1.8617,.1193-.3334-.4495-.0406-1.2317,.6541-1.7471,.69471-.5153,1.5281-.5687,1.8616-.1192s.0407,1.2316-.654,1.747Zm6.69011-3.816c-.57211,.4244-1.25711,.4703-1.52991,.1025-.2729-.3677-.0303-1.0099,.54191-1.4343,.572-.4244,1.257-.4704,1.52979-.1026,.2728,.3678,.0303,1.01-.54179,1.4344Zm5.29389-4.6156c-.5721,.4244-1.20789,.5365-1.4201,.2505-.2122-.2861,.0795-.862,.6516-1.2864s1.2079-.5366,1.4201-.2506c.2122,.2861-.07949,.862-.6516,1.2865Zm.0313-5.9883c-1.1034,.8185-2.4156,.9189-2.9309,.2243-.5154-.6948-.0388-1.9214,1.0646-2.7399,1.1033-.8186,2.4155-.919,2.9308-.2243,.5154,.6947,.0388,1.9214-1.0645,2.7399Z" style="fill:#263238;"></path><path d="M320.552,157.8707c-3.82651,.6217-15.99391,4.7706-19.37411,7.2783s-3.7167,7.1916-.5048,7.0258c3.212-.1657-.7756-2.9719,3.0291-4.9076,3.1193-1.587,7.5396-4.432,10.7212-3.4843-.2293-.3293,.0364-.929,.6024-1.349,.5721-.4244,1.2325-.5034,1.4751-.1765,.2425,.3269-.0247,.9359-.5968,1.3604-.313,.2322-.6502,.3568-.9332,.3724,.48711,.2271,.9405,.5535,1.3449,1.014,3.0657,3.4902-5.5605,8.5594-5.5605,8.5594,0,0,23.2573-1.7135,23.3085-4.8554,.05121-3.1419-9.6852-11.4592-13.51179-10.8375Zm-14.75561,7.7395c-.5313,.3942-1.1831,.4155-1.456,.0477-.2728-.3678-.0633-.9854,.4679-1.3795s1.183-.4154,1.4559-.0476c.27281,.3678,.0634,.9854-.4678,1.3794Zm10.7995,6.6713c-.5721,.4245-1.2325,.5035-1.475,.1766s.0246-.936,.5967-1.3604,1.2325-.5034,1.475-.1766c.2425,.3269-.02459,.936-.5967,1.3604Zm3.3725-3.6491c-1.0216,.7579-2.1446,.9748-2.50839,.4844-.36381-.4903,.16939-1.5023,1.19109-2.2602,1.0215-.7579,2.1446-.9747,2.5084-.4844,.3638,.4904-.16949,1.5023-1.1911,2.2602Zm2.0934-5.6826c-.4903,.3638-1.1336,.3274-1.43679-.0813-.30311-.4086-.15141-1.0347,.339-1.3985,.49039-.3638,1.13359-.3275,1.43679,.0812,.3031,.4086,.1514,1.0348-.339,1.3986Z" style="fill:#263238;"></path></g></g><g><path d="M297.01029,161.0901c0,12.4831-18.6052,22.6026-41.556,22.6026s-41.5559-10.1195-41.5559-22.6026c0-1.0171-.23939-7.5653,0-8.5469,2.698-11.0648,20.4753-14.0557,41.5559-14.0557,21.1343,0,38.9263,2.9498,41.556,14.0557,.226,.9545,0,7.5589,0,8.5469Z" style="fill:#263238; stroke:#263238; stroke-miterlimit:10;"></path><ellipse cx="255.45432" cy="152.5432" rx="41.55592" ry="22.6026" style="fill:#2CB67D; stroke:#263238; stroke-miterlimit:10;"></ellipse><ellipse cx="255.45432" cy="152.5432" rx="41.55592" ry="22.6026" style="fill:#969696; opacity:.25;"></ellipse><ellipse cx="255.45432" cy="152.5432" rx="41.55592" ry="22.6026" style="fill:none; stroke:#263238; stroke-miterlimit:10;"></ellipse><g><path d="M248.06329,150.2395c1.5304-2.1367-.3826-2.4928-.3826-2.4928,0,0-6.1219-2.1368-9.5656-.3561-3.4435,1.7806-8.4176,4.6295-11.4786,2.4928s2.6784-5.698,8.8003-8.9031c0,0,1.2809-.2954,2.8814-.4195-.0686-.1112-.111-.2304-.111-.3563,0-.5597,.7424-1.0134,1.6583-1.0134s1.6583,.4537,1.6583,1.0134c0,.1538-.0604,.2981-.1607,.4287,.4762,.0749,.9336,.1836,1.3435,.3471,2.6783,1.0684,8.4176,2.1368,9.9482-.3561,1.5305-2.4928-2.6784-8.5469-12.2439-5.698-4.8821,1.4541-7.9563,2.9985-8.8434,4.1646-5.0608,2.6411-10.16,6.0765-12.2008,9.012-4.2089,6.0541,7.6074,13.51,12.1988,12.4416,4.59151-1.0684,14.9673-8.1681,16.4978-10.3049Zm-2.578-11.9697c.6615,0,1.19771,.2475,1.19771,.5528s-.53621,.5527-1.19771,.5527c-.6614,0-1.1977-.2474-1.1977-.5527s.5363-.5528,1.1977-.5528Zm-14.4641,2.0269c1.0176,0,1.8426,.3712,1.8426,.8291s-.825,.8291-1.8426,.8291-1.8425-.3712-1.8425-.8291,.8249-.8291,1.8425-.8291Zm-4.3299,12.8978c-1.17029,0-2.119-.6187-2.119-1.3819s.94871-1.3819,2.119-1.3819c1.1702,0,2.1189,.6187,2.1189,1.3819s-.9487,1.3819-2.1189,1.3819Zm6.0804,0c-.55969,0-1.0134-.2062-1.0134-.4606s.45371-.4606,1.0134-.4606,1.0134,.2062,1.0134,.4606-.4537,.4606-1.0134,.4606Zm4.1457-.9212c-.814,0-1.474-.3301-1.474-.7371s.66-.737,1.474-.737c.8141,0,1.4741,.33,1.4741,.737s-.66,.7371-1.4741,.7371Z" style="fill:#263238;"></path><path d="M266.81169,151.3079s-.297,.1211-.7932,.2742c.9977,2.4895,1.1962,5.867-.3546,8.2727-2.2958,3.5612-13.0091,3.9174-15.6875,1.7806-2.6783-2.1367,1.5305-3.9173,5.2887-8.1499,.903-1.0169,1.6371-1.6223,2.2373-1.9666-1.8477-.3763-2.9697-.5671-4.08239-.5671-1.53051,0-3.82631,2.1367-7.26981,4.6295-3.4436,2.4929-9.9481,8.9031-9.9481,8.9031,0,0,4.2088,3.9174,15.6874,5.3419s21.0441-.7122,24.8704-2.4929c3.8262-1.7806,7.2697-5.3418,7.6524-6.4102,.3826-1.0684-17.6006-9.6153-17.6006-9.6153Zm-16.1672,13.8632c-.865,0-1.5662-.4537-1.5662-1.0134s.7012-1.0134,1.5662-1.0134,1.5661,.4537,1.5661,1.0134-.7011,1.0134-1.5661,1.0134Zm7.6466,.9213c-.7124,0-1.2898-.3712-1.2898-.8292,0-.4579,.5774-.8291,1.2898-.8291,.7123,0,1.2897,.3712,1.2897,.8291,0,.458-.5774,.8292-1.2897,.8292Zm7.0017-.5527c-.7123,0-1.28979-.2888-1.28979-.6449,0-.3562,.57749-.645,1.28979-.645s1.2898,.2888,1.2898,.645c0,.3561-.5775,.6449-1.2898,.6449Zm3.593-4.7907c-1.37379,0-2.4875-.7012-2.4875-1.5662s1.11371-1.5661,2.4875-1.5661,2.4874,.7011,2.4874,1.5661-1.1136,1.5662-2.4874,1.5662Z" style="fill:#263238;"></path><path d="M284.79489,139.5558c-3.4436-1.7806-15.6874-5.6979-19.8962-5.6979s-7.2699,3.5613-4.5915,5.3418c2.6783,1.7806,1.14781-2.8489,5.3567-2.1367,3.4508,.584,8.6959,.9328,10.6864,3.5895,.0121-.401,.5828-.7244,1.2876-.7244,.7124,0,1.2898,.33,1.2898,.7371,0,.407-.5774,.7369-1.2898,.7369-.3897,0-.7348-.1008-.9713-.2569,.2558,.4727,.4255,1.0049,.4759,1.6158,.3826,4.6296-9.5656,3.5612-9.5656,3.5612,0,0,19.6994,12.4808,21.6126,9.988,1.9131-2.4929-.951-14.9737-4.3946-16.7544Zm-16.46189-2.5758c-.66141,0-1.19771-.3712-1.19771-.8291,0-.458,.5363-.8292,1.19771-.8292s1.19759,.3712,1.19759,.8292c0,.4579-.5362,.8291-1.19759,.8291Zm4.69849,11.7924c-.7123,0-1.2898-.33-1.2898-.737,0-.4071,.5775-.7371,1.2898-.7371s1.2898,.33,1.2898,.7371c0,.407-.5775,.737-1.2898,.737Zm4.8828-.9213c-1.272,0-2.3032-.495-2.3032-1.1055,0-.6106,1.0312-1.1056,2.3032-1.1056s2.3032,.495,2.3032,1.1056c0,.6105-1.0312,1.1055-2.3032,1.1055Zm5.067-3.3166c-.6106,0-1.1055-.4125-1.1055-.9213s.4949-.9212,1.1055-.9212,1.1056,.4124,1.1056,.9212-.495,.9213-1.1056,.9213Z" style="fill:#263238;"></path></g></g></g><g id="freepik--Cucumbers--inject-2"><g><path d="M270.22349,192.3594c.0366-1.0086,.3952-1.489,.22-2.4513-.1794-.9862,.3867-2.6885,0-3.6164-.39349-.944-1.7939-1.2335-2.3858-2.107-.5985-.8833-2.5021-1.2533-3.287-2.0541-.78969-.8056-.5626-2.1443-1.5239-2.8556-.9631-.7127-2.99179-.7066-4.1102-1.3137-1.116-.606-1.4644-1.903-2.718-2.393-1.2462-.4872-3.2367-.1056-4.6021-.4676-1.3502-.3581-2.2494-1.5076-3.7001-1.733-1.4259-.2216-3.2158,.5076-4.7231,.424-1.4708-.0815-2.8484-.9899-4.3824-.9309s-2.9814,1.0759-4.4625,1.271c-1.5175,.2-3.2596-.3934-4.7056-.0614-1.4711,.3377-2.4565,1.5597-3.8366,2.0228-1.3955,.4682-3.3639,.2389-4.6489,.8234-1.2929,.5881-1.73629,1.9155-2.8996,2.6091-1.1654,.6949-3.1994,.8451-4.2169,1.634-1.0155,.7873-.885,2.1123-1.7353,2.981-.8452,.8633-2.7809,1.3811-3.4451,2.3129-.6571,.9215-2.3451,1.3295-2.8081,2.3064-.45529,.9603,.2516,2.6136,0,3.6164-.2455,.9783-.1834,1.4427-.22,2.4512-.0366,1.0086-.1752,2.6542,0,3.6164,.1795,.9861,1.8014,1.7054,2.188,2.6332,.3935,.944-.3941,2.2166,.1979,3.0902,.5985,.8832,2.502,1.2533,3.2869,2.054,.7897,.8057,.5626,2.1445,1.524,2.8558,.963,.7126,2.9918,.7066,4.11,1.3137,1.1162,.606,1.4643,1.9028,2.7182,2.3929,1.2461,.4872,3.23671,.1056,4.602,.4677,1.3502,.358,2.2495,1.5075,3.7001,1.7329,1.4258,.2215,3.2158-.5076,4.7231-.424,1.4708,.0815,2.8484,.9899,4.38251,.9309,1.534-.059,2.98139-1.076,4.46219-1.271,1.51781-.1999,3.25981,.3934,4.7059,.0614,1.471-.3378,2.4563-1.5597,3.8364-2.0228,1.3956-.4682,3.364-.2389,4.6491-.8234,1.2927-.5881,1.7361-1.9154,2.8993-2.6091,1.1656-.695,3.1996-.8451,4.21711-1.634,1.01549-.7873,.88509-2.1123,1.73529-2.9809,.8452-.8634,2.7808-1.3811,3.4452-2.3129,.657-.9216-.04049-2.137,.4226-3.1138,.4552-.9603,2.1338-1.8064,2.3854-2.8091,.2456-.9783-.0366-2.6078,0-3.6163Z" style="fill:#2CB67D; stroke:#263238; stroke-linecap:round; stroke-linejoin:round;"></path><path d="M269.29709,189.3654c.0366-1.0085,1.3216-2.1114,1.1464-3.0737-.1794-.9861-1.8013-1.7053-2.188-2.6332-.39349-.944,.3941-2.2166-.1978-3.0902-.5985-.8832-2.5021-1.2533-3.287-2.054-.78969-.8056-.5626-2.1444-1.5239-2.8557-.9631-.7127-2.99179-.7066-4.1102-1.3137-1.116-.606-1.4644-1.9029-2.718-2.393-1.2462-.4872-3.2367-.1055-4.6021-.4676-1.3502-.3581-2.2494-1.5076-3.7001-1.7329-1.4259-.2216-3.2158,.5075-4.7231,.424-1.4708-.0816-2.8484-.9899-4.3824-.931-1.534,.059-2.9814,1.076-4.4625,1.271-1.5175,.2-3.2596-.3933-4.7056-.0614-1.4711,.3378-2.4565,1.5598-3.8366,2.0228-1.3955,.4682-3.3639,.2389-4.6489,.8234-1.2929,.5881-1.73629,1.9155-2.8996,2.6091-1.1654,.695-3.1994,.8452-4.2169,1.634-1.0155,.7873-.885,2.1123-1.7353,2.981-.8452,.8633-2.7809,1.3811-3.4451,2.3129-.6571,.9215,.0403,2.1369-.4227,3.1137-.4553,.9603-2.1338,1.8064-2.3854,2.8091-.2455,.9784,.9628,1.9854,.9263,2.9939-.03659,1.0085-1.3215,2.1115-1.1463,3.0737,.1795,.9862,1.8014,1.7054,2.188,2.6332,.3935,.9441-.3941,2.2167,.1979,3.0902,.5985,.8833,2.502,1.2533,3.2869,2.0541,.7897,.8056,.5626,2.1445,1.524,2.8557,.963,.7127,2.9918,.7066,4.11,1.3138,1.1162,.6059,1.4643,1.9028,2.7182,2.3928,1.2461,.4872,3.23671,.1057,4.602,.4677,1.3502,.358,2.2495,1.5075,3.7001,1.733,1.4258,.2215,3.2158-.5077,4.7231-.4241,1.4708,.0816,2.8484,.9899,4.38251,.9309,1.534-.059,2.98139-1.0759,4.46219-1.271,1.51781-.1999,3.25981,.3935,4.7059,.0614,1.471-.3377,2.4563-1.5597,3.8364-2.0228,1.3956-.4682,3.364-.2389,4.6491-.8234,1.2927-.5881,1.7361-1.9154,2.8993-2.6091,1.1656-.6949,3.1996-.8451,4.21711-1.634,1.01549-.7873,.88509-2.1123,1.73529-2.9809,.8452-.8634,2.7808-1.381,3.4452-2.3129,.657-.9215-.04049-2.1369,.4226-3.1138,.4552-.9603,2.1338-1.8063,2.3854-2.809,.2456-.9784-.9629-1.9854-.9264-2.994Z" style="fill:#2CB67D; stroke:#263238; stroke-linecap:round; stroke-linejoin:round;"></path><path d="M266.27129,189.4818c.033-.9103,1.19271-1.9057,1.0346-2.7743-.162-.8901-1.6258-1.5392-1.9748-2.3767-.3552-.852,.3557-2.0006-.1787-2.7891-.5401-.7972-2.2583-1.1312-2.9666-1.8539-.7127-.7271-.5079-1.9355-1.3755-2.5775-.86929-.6432-2.70029-.6377-3.7096-1.1858-1.0074-.5469-1.3218-1.7174-2.4534-2.1598-1.1248-.4397-2.92129-.0952-4.1537-.4221-1.21859-.3231-2.0303-1.3606-3.33959-1.5641-1.28691-.2-2.90241,.4582-4.263,.3828-1.32751-.0736-2.57081-.8935-3.95541-.8402-1.38459,.0532-2.6909,.9711-4.0277,1.1471-1.36989,.1805-2.9421-.355-4.2472-.0554-1.3279,.3048-2.2171,1.4078-3.4628,1.8258-1.2595,.4225-3.0362,.2156-4.196,.7431-1.16689,.5307-1.5671,1.7288-2.617,2.3549-1.052,.6273-2.8878,.7629-3.8063,1.4748-.9164,.7106-.7987,1.9065-1.5662,2.6905-.7628,.7793-2.5099,1.2466-3.1095,2.0876-.593,.8318,.0365,1.9287-.3814,2.8105-.4108,.8666-1.926,1.6303-2.1531,2.5353-.2215,.8831,.8692,1.792,.8362,2.7023-.0331,.9103-1.1928,1.9058-1.0347,2.7742,.16211,.8901,1.6258,1.5392,1.9749,2.3767,.3551,.8521-.3557,2.0006,.1785,2.7891,.5403,.7972,2.2584,1.1312,2.96671,1.854,.71269,.7271,.50779,1.9355,1.37549,2.5775,.8692,.6432,2.7004,.6377,3.7097,1.1857,1.0073,.5469,1.3216,1.7175,2.4532,2.1599,1.1248,.4396,2.9214,.0953,4.1538,.422,1.2187,.3232,2.0302,1.3607,3.3395,1.5641,1.287,.2,2.9025-.4581,4.2631-.3828,1.3276,.0737,2.5709,.8936,3.9555,.8404,1.3846-.0533,2.6909-.9712,4.0276-1.1473,1.3697-.1804,2.94211,.3552,4.2473,.0554,1.3277-.3048,2.217-1.4077,3.4627-1.8256,1.2596-.4227,3.0362-.2157,4.196-.7432,1.1669-.5308,1.56711-1.7289,2.617-2.355,1.05211-.6273,2.8878-.7627,3.80611-1.4748,.91669-.7105,.79889-1.9065,1.56639-2.6905,.7628-.7793,2.51-1.2465,3.1095-2.0876,.593-.8317-.0366-1.9287,.3814-2.8104,.4109-.8667,1.9259-1.6304,2.153-2.5353,.22171-.8831-.869-1.792-.836-2.7023Z" style="fill:#fff; opacity:.69;"></path><g><path d="M237.97559,185.358c-1.53959,2.0971-3.9327,3.2725-5.3451,2.6253-1.4123-.6471-1.3089-2.8719,.2308-4.9689,1.53971-2.0971,3.9328-3.2725,5.3451-2.6254,1.4123,.6472,1.3091,2.8719-.2308,4.969Z" style="fill:#2CB67D;"></path><path d="M244.94009,184.4154c.2977,2.3361-.809,4.4303-2.4718,4.6775-1.6629,.2473-3.2524-1.446-3.5502-3.782-.2977-2.3361,.8088-4.4303,2.4717-4.6775,1.6629-.2473,3.2523,1.446,3.5503,3.782Z" style="fill:#2CB67D;"></path><path d="M249.93359,180.2675c2.3595,1.206,3.497,3.1471,2.5403,4.3356-.9566,1.1886-3.645,1.1746-6.0046-.0313-2.3597-1.206-3.497-3.1471-2.54029-4.3357,.95669-1.1886,3.645-1.1745,6.00459,.0314Z" style="fill:#2CB67D;"></path><path d="M233.16869,182.7894c-2.224,1.6424-4.8866,2.166-5.9474,1.1695s-.1177-3.1358,2.1062-4.7781c2.2238-1.6423,4.8866-2.166,5.9474-1.1695,1.0607,.9966,.1177,3.1358-2.1062,4.7781Z" style="fill:#2CB67D;"></path></g><g><path d="M231.52379,192.7608c3.317-.2459,6.0717,.4399,6.1528,1.5318,.0811,1.0918-2.5421,2.1763-5.859,2.4222-3.3171,.2459-6.0719-.44-6.153-1.5318-.081-1.0919,2.5421-2.1763,5.8592-2.4222Z" style="fill:#2CB67D;"></path><path d="M226.36169,189.4951c2.5167-1.3573,5.5769-1.8348,6.8349-1.0665,1.2583,.7684,.2379,2.4917-2.2788,3.8491-2.51679,1.3574-5.5769,1.8349-6.835,1.0666-1.2582-.7684-.2379-2.4917,2.2789-3.8492Z" style="fill:#2CB67D;"></path><path d="M218.66059,188.9329c.0081-1.8881,1.5785-3.495,3.5077-3.5892,1.9291-.0942,3.4865,1.3601,3.4784,3.2482s-1.57869,3.495-3.50769,3.5891c-1.92931,.0942-3.48651-1.36-3.47841-3.2481Z" style="fill:#2CB67D;"></path><path d="M231.37829,196.6646c3.19371,.3554,5.3555,1.5203,4.8283,2.6019-.527,1.0817-3.5432,1.6704-6.7369,1.315-3.1936-.3555-5.3553-1.5204-4.8283-2.6021,.5272-1.0816,3.5434-1.6703,6.7369-1.3148Z" style="fill:#2CB67D;"></path></g><g><path d="M245.14059,193.933c-3.3084,.0089-6.12059,.9086-6.2812,2.0098-.1607,1.1012,2.3911,1.9867,5.6994,1.9778,3.3085-.0089,6.1208-.9088,6.2813-2.0099,.1607-1.1012-2.39109-1.9866-5.6995-1.9777Z" style="fill:#2CB67D;"></path><path d="M250.55429,190.2606c-2.4252-1.1673-5.4592-1.4105-6.7767-.5431-1.3174,.8674-.4194,2.5169,2.0058,3.6843s5.4592,1.4106,6.77661,.5432c1.31749-.8674,.41949-2.5169-2.00571-3.6844Z" style="fill:#2CB67D;"></path><path d="M258.31769,189.1038c.129-1.8928-1.329-3.3833-3.2568-3.3291-1.9276,.0542-3.595,1.6324-3.724,3.5251-.129,1.8928,1.32911,3.3833,3.2568,3.3292,1.9277-.0543,3.595-1.6325,3.724-3.5252Z" style="fill:#2CB67D;"></path><path d="M245.00279,197.8364c-3.2283,.6023-5.4807,1.937-5.0307,2.981,.45,1.0442,3.43191,1.4022,6.6602,.7999,3.2284-.6024,5.4808-1.937,5.03071-2.9811-.44991-1.0441-3.43181-1.4022-6.66021-.7998Z" style="fill:#2CB67D;"></path></g></g><g><path d="M243.74519,138.6178c.0366-1.0085,.3952-1.4889,.22-2.4512-.1794-.9862,.3867-2.6885,0-3.6164-.3934-.9441-1.7938-1.2335-2.3858-2.107-.5985-.8833-2.5021-1.2533-3.287-2.0541-.7897-.8056-.5626-2.1444-1.5239-2.8557-.9631-.7127-2.9918-.7065-4.1102-1.3137-1.116-.6059-1.46429-1.9029-2.718-2.393-1.2462-.4871-3.2367-.1055-4.6021-.4675-1.35019-.3581-2.2494-1.5076-3.7001-1.733-1.4259-.2216-3.2158,.5075-4.72309,.424-1.47081-.0816-2.84841-.9899-4.38241-.9309s-2.9814,1.0759-4.4624,1.271c-1.5176,.1999-3.2596-.3934-4.7057-.0614-1.4711,.3377-2.45649,1.5597-3.8366,2.0228-1.3955,.4682-3.3638,.2389-4.64889,.8234-1.2929,.5881-1.7363,1.9155-2.8996,2.6091-1.1654,.6949-3.1994,.8451-4.2169,1.634-1.0155,.7873-.885,2.1123-1.7353,2.981-.8452,.8633-2.7809,1.3811-3.4451,2.3129-.6571,.9214-2.3451,1.3295-2.808,2.3064-.4554,.9603,.2515,2.6136,0,3.6163-.2456,.9784-.1835,1.4428-.2201,2.4513-.0366,1.0086-.1752,2.6542,0,3.6164,.1795,.9861,1.8014,1.7054,2.188,2.6332,.3935,.944-.3941,2.2166,.1979,3.0902,.5985,.8832,2.502,1.2533,3.2869,2.054,.7897,.8056,.5626,2.1445,1.524,2.8558,.9631,.7126,2.9918,.7066,4.11,1.3137,1.1162,.606,1.4643,1.9028,2.7182,2.3929,1.2462,.4872,3.2367,.1056,4.602,.4677,1.35019,.358,2.24949,1.5075,3.70009,1.7329,1.4258,.2215,3.2158-.5076,4.7231-.4241,1.4709,.0816,2.8484,.9899,4.3825,.931,1.534-.059,2.9814-1.076,4.46231-1.271,1.51769-.1999,3.25969,.3934,4.70579,.0614,1.471-.3378,2.4563-1.5598,3.8364-2.0228,1.3956-.4682,3.364-.2389,4.6491-.8234,1.29271-.5881,1.7361-1.9154,2.8994-2.6091,1.1656-.695,3.1995-.8452,4.217-1.634,1.0156-.7873,.8851-2.1123,1.73531-2.9809,.84529-.8634,2.78079-1.3811,3.44519-2.3129,.657-.9216-.0405-2.137,.4226-3.1139,.45521-.9602,2.1338-1.8063,2.3854-2.809,.2456-.9784-.0366-2.6078,0-3.6164Z" style="fill:#2CB67D; stroke:#263238; stroke-linecap:round; stroke-linejoin:round;"></path><path d="M242.81879,135.6239c.0366-1.0085,1.3216-2.1114,1.1464-3.0737-.1794-.9862-1.8013-1.7053-2.188-2.6332-.3935-.9441,.3942-2.2166-.1978-3.0902-.5985-.8832-2.5021-1.2533-3.287-2.054-.7897-.8057-.5626-2.1444-1.5239-2.8557-.9631-.7127-2.9918-.7066-4.1102-1.3137-1.116-.606-1.46429-1.9029-2.718-2.393-1.2462-.4872-3.2367-.1055-4.6021-.4676-1.35019-.3581-2.2494-1.5076-3.7001-1.7329-1.4259-.2216-3.2158,.5075-4.72309,.4239-1.47081-.0815-2.84841-.9899-4.38241-.9309s-2.9814,1.076-4.4624,1.271c-1.5176,.2-3.2596-.3933-4.7057-.0614-1.4711,.3378-2.45649,1.5597-3.8366,2.0228-1.3955,.4682-3.3638,.2389-4.64889,.8234-1.2929,.5881-1.7363,1.9155-2.8996,2.6091-1.1654,.695-3.1994,.8451-4.2169,1.634-1.0155,.7873-.885,2.1123-1.7353,2.981-.8452,.8633-2.7809,1.3811-3.4451,2.3129-.6571,.9215,.0403,2.1368-.4227,3.1137-.4553,.9603-2.1338,1.8063-2.3853,2.8091-.2456,.9783,.9627,1.9854,.9262,2.9939-.0366,1.0085-1.3215,2.1115-1.1463,3.0737,.1795,.9862,1.8014,1.7054,2.188,2.6332,.3935,.9441-.3941,2.2166,.1979,3.0902,.5985,.8833,2.502,1.2533,3.2869,2.054,.7897,.8057,.5626,2.1445,1.524,2.8558,.9631,.7126,2.9918,.7066,4.11,1.3138,1.1162,.6059,1.4643,1.9028,2.7182,2.3928,1.2462,.4872,3.2367,.1057,4.602,.4677,1.35019,.358,2.24949,1.5075,3.70009,1.733,1.4258,.2215,3.2158-.5077,4.7231-.4241,1.4709,.0815,2.8484,.9899,4.3825,.9309,1.534-.059,2.9814-1.076,4.46231-1.271,1.51769-.1999,3.25969,.3935,4.70579,.0614,1.471-.3378,2.4563-1.5597,3.8364-2.0228,1.3956-.4682,3.364-.2389,4.6491-.8234,1.29271-.5881,1.7361-1.9154,2.8994-2.6091,1.1656-.695,3.1995-.8451,4.217-1.634,1.0156-.7873,.8851-2.1123,1.73531-2.9809,.84529-.8634,2.78079-1.3811,3.44519-2.3129,.657-.9216-.0405-2.1369,.4226-3.1138,.45521-.9603,2.1338-1.8063,2.3854-2.8091,.2456-.9783-.9629-1.9853-.9264-2.9939Z" style="fill:#2CB67D; stroke:#263238; stroke-linecap:round; stroke-linejoin:round;"></path><path d="M239.793,135.7403c.033-.9103,1.19279-1.9057,1.03459-2.7743-.162-.8901-1.6258-1.5392-1.9748-2.3767-.3552-.8521,.3557-2.0006-.1787-2.7891-.54009-.7972-2.2582-1.1312-2.9666-1.8539-.7127-.7271-.5079-1.9355-1.37549-2.5776-.86931-.6431-2.70031-.6376-3.70961-1.1857-1.00739-.5469-1.3218-1.7174-2.45339-2.1598-1.12481-.4397-2.92131-.0952-4.15361-.4221-1.2187-.3231-2.03039-1.3606-3.3397-1.5641-1.2869-.2-2.9024,.4582-4.263,.3828-1.3275-.0736-2.5708-.8935-3.9554-.8402-1.3846,.0532-2.6909,.9711-4.0277,1.1471-1.3698,.1805-2.942-.3551-4.2472-.0554-1.3279,.3048-2.2171,1.4077-3.4627,1.8258-1.2596,.4225-3.0362,.2155-4.1961,.7431-1.1669,.5307-1.567,1.7288-2.617,2.3549-1.052,.6273-2.8878,.7629-3.8062,1.4748-.9165,.7106-.7987,1.9065-1.5662,2.6905-.7629,.7793-2.51,1.2466-3.1096,2.0876-.5929,.8318,.0365,1.9287-.3814,2.8105-.4108,.8666-1.926,1.6303-2.1531,2.5353-.2215,.8831,.8692,1.792,.8362,2.7022-.033,.9103-1.1928,1.9059-1.0347,2.7743,.1621,.8901,1.6258,1.5392,1.9749,2.3767,.3551,.8521-.3557,2.0006,.1785,2.7891,.5403,.7972,2.2584,1.1312,2.9668,1.854,.7127,.7271,.5077,1.9355,1.3754,2.5775,.8692,.6432,2.7004,.6377,3.7097,1.1857,1.0074,.5469,1.3216,1.7175,2.4532,2.1598,1.1248,.4397,2.9214,.0954,4.1538,.4221,1.2187,.3231,2.0302,1.3607,3.3395,1.5641,1.2871,.2,2.9025-.4581,4.2632-.3828,1.3275,.0737,2.5708,.8936,3.95541,.8404,1.38459-.0533,2.69089-.9713,4.02759-1.1473,1.3698-.1804,2.9421,.3552,4.2473,.0554,1.3277-.3048,2.217-1.4077,3.4627-1.8256,1.2596-.4227,3.0362-.2157,4.1961-.7433,1.1668-.5307,1.567-1.7288,2.6169-2.3549,1.0521-.6273,2.8878-.7627,3.8061-1.4748,.9167-.7105,.7989-1.9065,1.5664-2.6905,.7628-.7793,2.51-1.2465,3.1096-2.0876,.5929-.8317-.03669-1.9287,.38131-2.8104,.41089-.8667,1.92589-1.6304,2.153-2.5353,.22169-.8832-.869-1.792-.836-2.7023Z" style="fill:#fff; opacity:.69;"></path><g><path d="M211.49739,131.6165c-1.5397,2.097-3.9328,3.2725-5.3452,2.6253-1.4123-.6471-1.3089-2.8719,.23081-4.9689,1.53969-2.0971,3.93279-3.2725,5.34509-2.6254,1.4123,.6472,1.3091,2.8719-.2307,4.969Z" style="fill:#2CB67D;"></path><path d="M218.46179,130.6739c.2977,2.3361-.809,4.4303-2.47179,4.6775-1.66291,.2472-3.25241-1.446-3.55021-3.7821-.2977-2.336,.8088-4.4302,2.4717-4.6775,1.6629-.2472,3.2523,1.4461,3.5503,3.7821Z" style="fill:#2CB67D;"></path><path d="M223.45529,126.526c2.3596,1.2059,3.497,3.147,2.5403,4.3356-.95659,1.1886-3.645,1.1746-6.0045-.0313-2.3598-1.206-3.497-3.1471-2.5404-4.3357,.9567-1.1886,3.645-1.1745,6.0046,.0314Z" style="fill:#2CB67D;"></path><path d="M206.69039,129.0479c-2.2239,1.6423-4.8866,2.166-5.94739,1.1694-1.06071-.9965-.11771-3.1357,2.10619-4.778,2.22381-1.6424,4.8866-2.166,5.9474-1.1695s.1178,3.1357-2.1062,4.7781Z" style="fill:#2CB67D;"></path></g><g><path d="M205.04549,139.0192c3.317-.2458,6.0717,.44,6.1528,1.5319,.0812,1.0918-2.5421,2.1763-5.859,2.4222-3.3171,.2458-6.0719-.44-6.153-1.5318-.081-1.0919,2.5421-2.1763,5.8592-2.4223Z" style="fill:#2CB67D;"></path><path d="M199.88339,135.7536c2.5167-1.3573,5.5769-1.8349,6.835-1.0665,1.2582,.7684,.2378,2.4916-2.2789,3.8491-2.5167,1.3574-5.5769,1.8349-6.835,1.0665-1.2582-.7683-.2379-2.4916,2.2789-3.8491Z" style="fill:#2CB67D;"></path><path d="M192.1823,135.1914c.0081-1.8881,1.5785-3.495,3.5077-3.5892,1.9291-.0942,3.48649,1.3601,3.47839,3.2482s-1.5786,3.495-3.5077,3.5891c-1.9292,.0942-3.4865-1.36-3.4784-3.2481Z" style="fill:#2CB67D;"></path><path d="M204.9,142.9231c3.19369,.3553,5.35549,1.5203,4.82829,2.6019-.527,1.0817-3.5432,1.6703-6.7369,1.315-3.1935-.3555-5.3553-1.5204-4.8283-2.6021,.5272-1.0816,3.5434-1.6703,6.73691-1.3148Z" style="fill:#2CB67D;"></path></g><g><path d="M218.66239,140.1915c-3.3085,.0089-6.1207,.9086-6.2813,2.0098-.1607,1.1011,2.3911,1.9867,5.6994,1.9778,3.30851-.0089,6.1208-.9088,6.2813-2.0099,.1607-1.1012-2.3911-1.9866-5.6994-1.9777Z" style="fill:#2CB67D;"></path><path d="M224.076,136.5191c-2.42521-1.1673-5.45921-1.4105-6.77671-.5431-1.3174,.8673-.4194,2.5169,2.0058,3.6843s5.4592,1.4106,6.7766,.5432c1.3175-.8674,.4195-2.5169-2.00569-3.6844Z" style="fill:#2CB67D;"></path><path d="M231.83939,135.3623c.129-1.8928-1.329-3.3833-3.2568-3.3292-1.92759,.0543-3.595,1.6325-3.724,3.5252s1.3291,3.3833,3.2568,3.3291,3.595-1.6324,3.724-3.5251Z" style="fill:#2CB67D;"></path><path d="M218.52449,144.0949c-3.2283,.6023-5.4806,1.937-5.0307,2.981,.45,1.0442,3.4319,1.4022,6.66021,.7999,3.22839-.6024,5.48079-1.9371,5.03069-2.9811-.4499-1.0441-3.4318-1.4022-6.6602-.7998Z" style="fill:#2CB67D;"></path></g></g><g><path d="M353.03929,150.1089c.6401-.7802,1.2165-.9451,1.6601-1.8168,.4547-.8933,1.9365-1.9046,2.191-2.8771,.2589-.9895-.6798-2.0682-.6215-3.1218,.0589-1.0653-1.2313-2.513-1.3706-3.6256-.1402-1.1194,.8516-2.0469,.51771-3.1952-.33441-1.1505-1.95211-2.3747-2.474-3.5353-.52081-1.1582-.01211-2.4011-.71261-3.5505-.6963-1.1426-2.5111-2.045-3.378-3.1602-.8572-1.1029-.8762-2.5623-1.8938-3.6204-1.0002-1.0403-2.8659-1.5446-4.0144-2.5242-1.1208-.956-1.6664-2.5133-2.9226-3.3958-1.2562-.8824-3.0238-.9503-4.3202-1.6924-1.3285-.7603-2.355-2.2878-3.7065-2.8998-1.375-.6225-2.8993-.2474-4.27789-.7151-1.39381-.473-2.82091-1.848-4.19741-2.1615-1.3849-.3155-2.5418,.472-3.8875,.319-1.3483-.1532-3.0574-1.266-4.3449-1.2549-1.2849,.0111-1.9838,1.1443-3.1866,1.3203-1.1955,.1747-3.0492-.5861-4.1421-.2472-1.0811,.335-2.6712-.363-3.6314,.1337-.944,.4881-1.3833,2.2318-2.191,2.8771-.78809,.6296-1.02,1.0366-1.6602,1.8168-.6401,.7802-1.7474,2.0055-2.19089,2.8771-.45471,.8933,.39979,2.4481,.14539,3.4206-.259,.9894-1.6566,1.5247-1.7149,2.5783-.0589,1.0653,1.2313,2.513,1.3706,3.6256,.1402,1.1193-.8516,2.0469-.5178,3.1952,.3345,1.1505,1.9522,2.3748,2.4739,3.5353,.5209,1.1583,.0122,2.401,.71281,3.5505,.69629,1.1426,2.511,2.045,3.37789,3.1603,.8573,1.1028,.8763,2.5622,1.8938,3.6204,1.0002,1.04,2.866,1.5444,4.0145,2.5241,1.12081,.956,1.6664,2.5133,2.9226,3.3957,1.25621,.8825,3.0238,.9504,4.3201,1.6924,1.3286,.7605,2.355,2.2879,3.7066,2.8999,1.375,.6225,2.8992,.2473,4.2778,.715,1.3939,.4731,2.821,1.8481,4.1975,2.1616,1.3848,.3153,2.5416-.472,3.8874-.3191,1.3484,.1533,3.0575,1.2661,4.345,1.2549,1.2849-.0111,1.98381-1.1443,3.1865-1.3201,1.1956-.1749,3.0491,.586,4.1422,.2471,1.08111-.3351,1.2624-1.7246,2.2228-2.2212,.9438-.4882,2.7919-.1443,3.5996-.7896,.7881-.6296,1.5508-2.0969,2.191-2.8771Z" style="fill:#2CB67D; stroke:#263238; stroke-linecap:round; stroke-linejoin:round;"></path><path d="M354.11609,147.1658c.6402-.7802,2.3307-.8791,2.7743-1.7508,.4547-.8933-.3999-2.4481-.14539-3.4206,.25889-.9894,1.65659-1.5247,1.71489-2.5783,.0589-1.0653-1.2313-2.513-1.3706-3.6256-.1402-1.1193,.8516-2.0469,.51771-3.1952-.33441-1.1505-1.95211-2.3747-2.474-3.5353-.52081-1.1582-.01211-2.4011-.71261-3.5505-.6963-1.1426-2.5111-2.045-3.378-3.1602-.8572-1.1029-.8762-2.5623-1.8938-3.6204-1.0002-1.0403-2.8659-1.5446-4.0144-2.5242-1.1208-.956-1.6664-2.5133-2.9226-3.3958-1.2562-.8824-3.0238-.9503-4.3203-1.6924-1.3284-.7603-2.3549-2.2878-3.7064-2.8998-1.375-.6225-2.8993-.2474-4.27789-.7151-1.39391-.473-2.82091-1.848-4.19741-2.1615-1.3849-.3155-2.5418,.472-3.8875,.319-1.3483-.1532-3.0574-1.266-4.3449-1.2549-1.2849,.0111-1.9838,1.1443-3.1866,1.3203-1.1955,.1748-3.0492-.5861-4.1421-.2472-1.0811,.335-1.2626,1.7245-2.2228,2.2212-.944,.4881-2.7919,.1443-3.5996,.7896-.78809,.6296-.4369,2.1628-1.077,2.943-.64009,.7802-2.3306,.8793-2.7742,1.7509-.4546,.8933,.3999,2.4482,.1455,3.4206-.259,.9894-1.6566,1.5247-1.7149,2.5783-.0589,1.0653,1.2313,2.513,1.3706,3.6256,.1402,1.1193-.8517,2.0469-.5178,3.1953,.3345,1.1504,1.9522,2.3747,2.4739,3.5352,.5209,1.1583,.0122,2.401,.71281,3.5505,.69629,1.1426,2.511,2.045,3.37789,3.1603,.8573,1.1028,.8763,2.5622,1.8938,3.6204,1.0002,1.0401,2.866,1.5445,4.0145,2.5241,1.12081,.956,1.6664,2.5133,2.9226,3.3958,1.25621,.8824,3.0238,.9503,4.3201,1.6923,1.3286,.7605,2.355,2.288,3.7066,2.8999,1.375,.6225,2.8992,.2473,4.2777,.715,1.394,.4731,2.8211,1.8481,4.1976,2.1616,1.3848,.3154,2.5416-.472,3.8874-.3191,1.3483,.1533,3.0575,1.2661,4.345,1.255,1.2849-.0111,1.98381-1.1443,3.1865-1.3202,1.1956-.1749,3.0491,.586,4.1422,.2472,1.081-.3352,1.2624-1.7247,2.2227-2.2213,.9439-.4882,2.792-.1443,3.5997-.7896,.7881-.6296,.43671-2.1629,1.0768-2.9431Z" style="fill:#2CB67D; stroke:#263238; stroke-linecap:round; stroke-linejoin:round;"></path><path d="M351.63839,145.4251c.5778-.7042,2.1035-.7935,2.5039-1.5803,.4104-.8063-.3609-2.2095-.1312-3.0873,.2337-.893,1.4951-1.3761,1.5477-2.3271,.05321-.9616-1.1113-2.2682-1.237-3.2723-.1265-1.0103,.7685-1.8476,.4673-2.884-.3019-1.0384-1.762-2.1433-2.2329-3.1908-.4701-1.0455-.0111-2.1672-.6433-3.2048-.6285-1.0312-2.2664-1.8456-3.0488-2.8523-.7738-.9954-.791-2.3126-1.7094-3.2677-.9026-.9387-2.5866-1.3938-3.6234-2.2782-1.0115-.8628-1.504-2.2684-2.6378-3.0649s-2.7291-.8577-3.8993-1.5275c-1.1991-.6864-2.1255-2.065-3.3454-2.6173-1.2411-.562-2.6167-.2232-3.861-.6454-1.2581-.4269-2.5461-1.668-3.7885-1.951-1.2499-.2847-2.2941,.426-3.5087,.288-1.2171-.1383-2.7597-1.1427-3.9217-1.1327-1.1597,.01-1.7905,1.0329-2.8761,1.1916-1.079,.1578-2.7521-.529-3.7387-.2231-.9757,.3025-1.1395,1.5565-2.0062,2.0049-.85189,.4406-2.52,.1301-3.249,.7126-.7112,.5683-.3941,1.9522-.97189,2.6564-.57781,.7042-2.10361,.7936-2.50391,1.5803-.4104,.8063,.36091,2.2095,.1312,3.0873-.2337,.893-1.4951,1.3761-1.5478,2.3271-.0531,.9616,1.1114,2.2682,1.237,3.2724,.12651,1.0103-.7687,1.8474-.4672,2.8839,.3018,1.0383,1.7619,2.1434,2.2329,3.1908,.4701,1.0455,.0109,2.1672,.6432,3.2047,.6284,1.0312,2.2664,1.8458,3.0489,2.8524,.7738,.9954,.7908,2.3125,1.7092,3.2676,.9028,.9388,2.5867,1.394,3.6236,2.2783,1.0115,.8628,1.50391,2.2684,2.6377,3.0649,1.1338,.7966,2.72921,.8577,3.8994,1.5275,1.199,.6863,2.1254,2.065,3.3454,2.6173,1.241,.5619,2.6167,.2232,3.8609,.6455,1.2582,.4268,2.5462,1.6679,3.7886,1.9509,1.24991,.2847,2.2941-.426,3.5087-.288,1.2171,.1383,2.7596,1.1427,3.9216,1.1326,1.1597-.0099,1.79061-1.0328,2.8762-1.1915,1.079-.1578,2.7521,.529,3.7387,.2231,.9756-.3024,1.1394-1.5566,2.0061-2.0048,.852-.4407,2.5199-.1303,3.2489-.7127,.7114-.5683,.3943-1.9522,.9721-2.6564Z" style="fill:#fff; opacity:.69;"></path><g><path d="M331.62549,125.0013c-2.49549,.7355-5.11149,.2208-5.843-1.1497-.73149-1.3706,.6986-3.0779,3.194-3.8134,2.49551-.7356,5.11151-.2208,5.843,1.1497,.73151,1.3705-.6984,3.0779-3.194,3.8134Z" style="fill:#2CB67D;"></path><path d="M337.73729,128.4708c-1.1784,2.0389-3.3277,3.0345-4.8004,2.2237-1.4728-.8107-1.7115-3.1208-.533-5.1597,1.1784-2.039,3.3275-3.0346,4.8002-2.2239,1.4728,.8108,1.7114,3.121,.5332,5.1599Z" style="fill:#2CB67D;"></path><path d="M344.22309,128.1962c1.1465,2.389,.8754,4.6224-.6058,4.9884s-3.6115-1.2739-4.7581-3.6629c-1.1467-2.3891-.8754-4.6224,.60581-4.9884,1.48119-.366,3.61139,1.274,4.75809,3.6629Z" style="fill:#2CB67D;"></path><path d="M329.35739,120.0455c-2.7643-.0408-5.1999-1.2374-5.4401-2.6729s1.8061-2.566,4.5704-2.5253c2.76431,.0407,5.1999,1.2374,5.4401,2.6729,.24021,1.4355-1.8061,2.566-4.5704,2.5253Z" style="fill:#2CB67D;"></path></g><g><path d="M322.00749,126.9818c2.788,1.8141,4.564,4.0286,3.967,4.9464-.5969,.9178-3.341,.1913-6.1288-1.6226-2.7879-1.8141-4.564-4.0287-3.9671-4.9465,.5971-.9178,3.3409-.1913,6.1289,1.6227Z" style="fill:#2CB67D;"></path><path d="M319.87919,121.2563c2.8246,.4449,5.5485,1.919,6.0839,3.2925,.5355,1.3736-1.3203,2.1264-4.145,1.6816-2.8247-.4449-5.5486-1.919-6.0839-3.2925-.5355-1.3736,1.3203-2.1264,4.145-1.6816Z" style="fill:#2CB67D;"></path><path d="M314.093,116.1433c1.15039-1.4972,3.37329-1.8243,4.96519-.7304,1.59181,1.0939,1.9497,3.1944,.7994,4.6916-1.1504,1.4972-3.3734,1.8241-4.9651,.7303-1.592-1.0939-1.9498-3.1943-.79949-4.6915Z" style="fill:#2CB67D;"></path><path d="M319.52669,129.9995c2.3255,2.2176,3.3395,4.4542,2.2648,4.9953-1.0746,.5413-3.8309-.8178-6.1564-3.0355-2.3253-2.2176-3.3394-4.4541-2.2648-4.9953,1.07471-.5412,3.831,.8179,6.1564,3.0355Z" style="fill:#2CB67D;"></path></g><g><path d="M332.13059,136.1643c-2.6375-1.9974-5.4199-2.9853-6.2149-2.2066s.6987,3.0292,3.3361,5.0265c2.6375,1.9974,5.4201,2.9853,6.2149,2.2065,.795-.7787-.69869-3.0291-3.3361-5.0264Z" style="fill:#2CB67D;"></path><path d="M338.66249,136.5225c-1.2222-2.398-3.4887-4.4297-5.0624-4.5378-1.5735-.1081-1.8585,1.7483-.6364,4.1464,1.2222,2.3981,3.4887,4.4297,5.0622,4.5378,1.5738,.1081,1.8587-1.7482,.6366-4.1464Z" style="fill:#2CB67D;"></path><path d="M345.53969,140.3057c1.2494-1.4277,.9924-3.4968-.574-4.6217-1.5665-1.1248-3.8491-.8794-5.0985,.5483-1.2494,1.4276-.9924,3.4968,.5741,4.6217,1.5664,1.1247,3.8491,.8794,5.0984-.5483Z" style="fill:#2CB67D;"></path><path d="M329.656,139.1862c-2.93321-1.4767-5.53381-1.7794-5.80841-.6762-.2745,1.1033,1.8809,3.1947,4.8141,4.6714,2.9335,1.4767,5.534,1.7796,5.8084,.6763,.2747-1.1033-1.8807-3.1948-4.81409-4.6715Z" style="fill:#2CB67D;"></path></g></g></g><g id="freepik--Bread_1--inject-2"><g><path d="M300.89259,28.2036c-40.502-16.8736-98.72459-5.1127-129.9315,17.5772-19.9889,14.5334-40.9039,42.353-34.9423,68.641,1.9338,8.5275,4.6524,16.9505,16.5788,22.5504,11.9263,5.5999,49.644,6.9677,81.9221,3.4692,32.278-3.4985,80.253-21.0661,99.718-42.8246,12.4675-13.9366,6.2286-34.1901-3.9491-47.4426-7.6427-9.9515-17.7921-17.1363-29.396-21.9706Z" style="fill:#2CB67D; stroke:#263238; stroke-miterlimit:10;"></path><g><path d="M268.32139,51.202c-3.3437,.8116-3.8877-1.7284-3.8877-1.7284,0,0-.3988-2.5753,2.7995-3.3516,3.0529-.7411,3.8877,1.7284,3.8877,1.7284,0,0,.3988,2.5753-2.7995,3.3516Z" style="fill:#fff;"></path><path d="M297.24639,56.5616c-3.4461-.1818-3.4311-2.7737-3.4311-2.7737,0,0,.1648-2.584,3.461-2.41,3.1465,.1661,3.4312,2.7737,3.4312,2.7737,0,0-.1649,2.584-3.4611,2.41Z" style="fill:#fff;"></path><path d="M272.92409,81.4922c-3.44609-.1819-3.43109-2.7738-3.43109-2.7738,0,0,.16479-2.5839,3.461-2.4099,3.14649,.166,3.43109,2.7737,3.43109,2.7737,0,0-.1647,2.584-3.461,2.41Z" style="fill:#fff;"></path><path d="M165.1152,105.1954c-3.4461-.1819-3.4311-2.7738-3.4311-2.7738,0,0,.1648-2.5839,3.461-2.4099,3.1465,.166,3.4312,2.7736,3.4312,2.7736,0,0-.1648,2.584-3.4611,2.4101Z" style="fill:#fff;"></path><path d="M236.36169,85.5617c-3.4089,.4298-3.73869-2.1496-3.73869-2.1496,0,0-.18171-2.5981,3.07889-3.0092,3.1124-.3924,3.7387,2.1496,3.7387,2.1496,0,0,.1817,2.5981-3.0789,3.0092Z" style="fill:#fff;"></path><path d="M303.60229,76.8798c-3.3597,.7335-3.86-1.8166-3.86-1.8166,0,0-.35429-2.582,2.8594-3.2836,3.0675-.6697,3.86,1.8166,3.86,1.8166,0,0,.35431,2.5821-2.8594,3.2836Z" style="fill:#fff;"></path><path d="M284.62159,105.1148c-3.3597,.7335-3.86-1.8166-3.86-1.8166,0,0-.3543-2.582,2.8593-3.2836,3.0676-.6697,3.86,1.8166,3.86,1.8166,0,0,.3543,2.582-2.8593,3.2836Z" style="fill:#fff;"></path><path d="M252.74909,106.7355c-3.3597,.7334-3.86-1.8166-3.86-1.8166,0,0-.3543-2.582,2.8593-3.2836,3.0675-.6697,3.86,1.8166,3.86,1.8166,0,0,.3543,2.5819-2.8593,3.2836Z" style="fill:#fff;"></path><path d="M207.07069,112.0197c-3.3596,.7335-3.86-1.8166-3.86-1.8166,0,0-.3543-2.582,2.85931-3.2836,3.06759-.6697,3.86009,1.8166,3.86009,1.8166,0,0,.3542,2.582-2.8594,3.2836Z" style="fill:#fff;"></path><path d="M283.25429,39.0514c-3.4461-.1329-3.4587-2.7261-3.4587-2.7261,0,0,.1371-2.5873,3.43341-2.4602,3.14639,.1214,3.45879,2.7261,3.45879,2.7261,0,0-.1372,2.5874-3.4335,2.4602Z" style="fill:#fff;"></path><path d="M222.849,43.6413c-4.11611,1.2224-4.69571-1.0582-4.69571-1.0582,0,0-.4005-2.3337,3.5366-3.503,3.7583-1.1162,4.6957,1.0581,4.6957,1.0581,0,0,.4007,2.3337-3.53659,3.5031Z" style="fill:#fff;"></path><path d="M195.7758,65.4361c-3.304,.9813-3.9479-1.5527-3.9479-1.5527,0,0-.5003-2.5766,2.66-3.5152,3.0167-.8959,3.9479,1.5528,3.9479,1.5528,0,0,.5003,2.5765-2.66,3.5151Z" style="fill:#fff;"></path><path d="M191.309,50.0798c-3.3039,.9812-3.6234-.276-3.6234-.276,0,0-.1758-1.2999,2.9845-2.2385,3.0166-.8958,3.6234,.276,3.6234,.276,0,0,.1759,1.2999-2.9845,2.2385Z" style="fill:#fff;"></path><path d="M173.2783,56.9444c-3.0582,1.6944-3.5762,.5206-3.5762,.5206,0,0-.385-1.2474,2.5403-2.8681,2.7924-1.5471,3.5763-.5207,3.5763-.5207,0,0,.385,1.2475-2.5404,2.8682Z" style="fill:#fff;"></path><path d="M143.5264,107.0431c-.8166,3.3995-2.032,2.9885-2.032,2.9885,0,0-1.1799-.5588-.3987-3.8106,.7457-3.104,2.032-2.9886,2.032-2.9886,0,0,1.1798,.5588,.3987,3.8107Z" style="fill:#fff;"></path><path d="M204.63689,39.5371c-3.29389,1.02-3.6243-.2339-3.6243-.2339,0,0-.1871-1.2982,2.9636-2.2739,3.0075-.9314,3.6243,.2338,3.6243,.2338,0,0,.1871,1.2982-2.9636,2.274Z" style="fill:#fff;"></path><path d="M242.438,30.4047c-3.37631,.6438-3.60141-.6363-3.60141-.6363,0,0-.0782-1.3082,3.1513-1.9241,3.0828-.5879,3.6014,.6363,3.6014,.6363,0,0,.0783,1.3082-3.15129,1.9241Z" style="fill:#fff;"></path><path d="M301.75779,35.1513c-3.3605-1.0323-3.1116-2.2852-3.1116-2.2852,0,0,.3951-1.208,3.6095-.2205,3.06831,.9425,3.1116,2.2852,3.1116,2.2852,0,0-.3951,1.2079-3.6095,.2205Z" style="fill:#fff;"></path><path d="M324.64219,55.9719c-2.5739-2.3946-1.8034-3.4134-1.8034-3.4134,0,0,.8824-.9148,3.3443,1.3757,2.3501,2.1864,1.8034,3.4135,1.8034,3.4135,0,0-.8824,.9146-3.3443-1.3758Z" style="fill:#fff;"></path><path d="M153.5265,76.6825c-2.5905,2.5048-3.3316,1.4969-3.3316,1.4969,0,0-.6285-1.1167,1.8494-3.5126,2.3653-2.287,3.3317-1.497,3.3317-1.497,0,0,.6284,1.1168-1.8495,3.5127Z" style="fill:#fff;"></path><path d="M264.29179,37.8153c-3.3436,.8117-3.8877-1.7283-3.8877-1.7283,0,0-.3987-2.5753,2.7996-3.3516,3.0529-.7411,3.8877,1.7283,3.8877,1.7283,0,0,.3987,2.5753-2.7996,3.3516Z" style="fill:#fff;"></path><path d="M253.491,67.6689c-3.34371,.8116-3.88781-1.7284-3.88781-1.7284,0,0-.3987-2.5753,2.7996-3.3516,3.0529-.7411,3.8878,1.7284,3.8878,1.7284,0,0,.3986,2.5753-2.79959,3.3516Z" style="fill:#fff;"></path><path d="M244.53789,49.939c-3.3437,.8116-3.8878-1.7284-3.8878-1.7284,0,0-.3987-2.5753,2.7996-3.3516,3.0529-.741,3.8877,1.7284,3.8877,1.7284,0,0,.3988,2.5753-2.7995,3.3516Z" style="fill:#fff;"></path><path d="M201.91009,84.7129c-3.3436,.8116-3.8877-1.7285-3.8877-1.7285,0,0-.3987-2.5753,2.7995-3.3516,3.053-.741,3.8878,1.7285,3.8878,1.7285,0,0,.3988,2.5753-2.7996,3.3516Z" style="fill:#fff;"></path><path d="M226.15349,63.0034c-3.3437,.8117-3.8877-1.7283-3.8877-1.7283,0,0-.39879-2.5753,2.7995-3.3516,3.0529-.7411,3.88771,1.7283,3.88771,1.7283,0,0,.39879,2.5753-2.79951,3.3516Z" style="fill:#fff;"></path></g><path d="M328.55649,87.0392c-10.6226,13.2359-20.6903,17.9537-51.1128,22.0038-30.4223,4.0501-54.3921,10.0559-75.6698,15.1402-21.2777,5.0845-23.2317,3.0928-45.42889-2.9591-16.7509-4.5669-19.7938-6.1142-20.2794-6.5988,1.9314,8.4577,4.7006,16.7915,16.532,22.3469,11.9263,5.6,49.644,6.9677,81.9221,3.4692,32.278-3.4985,80.253-21.0661,99.718-42.8246,6.89131-7.7034,8.0607-17.336,6.0154-26.6502-2.626,4.537-6.4356,9.5172-11.6966,16.0726Z" style="fill:#fff;"></path><path d="M300.89259,28.2036c-40.502-16.8736-98.72459-5.1127-129.9315,17.5772-19.9889,14.5334-40.9039,42.353-34.9423,68.641,1.9338,8.5275,4.6524,16.9505,16.5788,22.5504,11.9263,5.5999,49.644,6.9677,81.9221,3.4692,32.278-3.4985,80.253-21.0661,99.718-42.8246,12.4675-13.9366,6.2286-34.1901-3.9491-47.4426-7.6427-9.9515-17.7921-17.1363-29.396-21.9706Z" style="fill:none; stroke:#263238; stroke-miterlimit:10;"></path></g></g></svg>
